%TF.GenerationSoftware,KiCad,Pcbnew,8.0.6*%
%TF.CreationDate,2026-01-06T07:00:52+07:00*%
%TF.ProjectId,Tesla coil winder Control board ,5465736c-6120-4636-9f69-6c2077696e64,rev?*%
%TF.SameCoordinates,Original*%
%TF.FileFunction,Copper,L2,Bot*%
%TF.FilePolarity,Positive*%
%FSLAX46Y46*%
G04 Gerber Fmt 4.6, Leading zero omitted, Abs format (unit mm)*
G04 Created by KiCad (PCBNEW 8.0.6) date 2026-01-06 07:00:52*
%MOMM*%
%LPD*%
G01*
G04 APERTURE LIST*
G04 Aperture macros list*
%AMRoundRect*
0 Rectangle with rounded corners*
0 $1 Rounding radius*
0 $2 $3 $4 $5 $6 $7 $8 $9 X,Y pos of 4 corners*
0 Add a 4 corners polygon primitive as box body*
4,1,4,$2,$3,$4,$5,$6,$7,$8,$9,$2,$3,0*
0 Add four circle primitives for the rounded corners*
1,1,$1+$1,$2,$3*
1,1,$1+$1,$4,$5*
1,1,$1+$1,$6,$7*
1,1,$1+$1,$8,$9*
0 Add four rect primitives between the rounded corners*
20,1,$1+$1,$2,$3,$4,$5,0*
20,1,$1+$1,$4,$5,$6,$7,0*
20,1,$1+$1,$6,$7,$8,$9,0*
20,1,$1+$1,$8,$9,$2,$3,0*%
%AMFreePoly0*
4,1,19,0.500000,-0.750000,0.000000,-0.750000,0.000000,-0.744911,-0.071157,-0.744911,-0.207708,-0.704816,-0.327430,-0.627875,-0.420627,-0.520320,-0.479746,-0.390866,-0.500000,-0.250000,-0.500000,0.250000,-0.479746,0.390866,-0.420627,0.520320,-0.327430,0.627875,-0.207708,0.704816,-0.071157,0.744911,0.000000,0.744911,0.000000,0.750000,0.500000,0.750000,0.500000,-0.750000,0.500000,-0.750000,
$1*%
%AMFreePoly1*
4,1,19,0.000000,0.744911,0.071157,0.744911,0.207708,0.704816,0.327430,0.627875,0.420627,0.520320,0.479746,0.390866,0.500000,0.250000,0.500000,-0.250000,0.479746,-0.390866,0.420627,-0.520320,0.327430,-0.627875,0.207708,-0.704816,0.071157,-0.744911,0.000000,-0.744911,0.000000,-0.750000,-0.500000,-0.750000,-0.500000,0.750000,0.000000,0.750000,0.000000,0.744911,0.000000,0.744911,
$1*%
G04 Aperture macros list end*
%TA.AperFunction,NonConductor*%
%ADD10C,0.800000*%
%TD*%
%ADD11C,0.300000*%
%TA.AperFunction,NonConductor*%
%ADD12C,0.300000*%
%TD*%
%ADD13C,0.400000*%
%TA.AperFunction,NonConductor*%
%ADD14C,0.400000*%
%TD*%
%ADD15C,0.375000*%
%TA.AperFunction,NonConductor*%
%ADD16C,0.375000*%
%TD*%
%TA.AperFunction,ComponentPad*%
%ADD17C,1.600000*%
%TD*%
%TA.AperFunction,ComponentPad*%
%ADD18O,1.600000X1.600000*%
%TD*%
%TA.AperFunction,ComponentPad*%
%ADD19RoundRect,0.250000X0.845000X-0.620000X0.845000X0.620000X-0.845000X0.620000X-0.845000X-0.620000X0*%
%TD*%
%TA.AperFunction,ComponentPad*%
%ADD20O,2.190000X1.740000*%
%TD*%
%TA.AperFunction,ComponentPad*%
%ADD21RoundRect,0.250000X0.620000X0.845000X-0.620000X0.845000X-0.620000X-0.845000X0.620000X-0.845000X0*%
%TD*%
%TA.AperFunction,ComponentPad*%
%ADD22O,1.740000X2.190000*%
%TD*%
%TA.AperFunction,ComponentPad*%
%ADD23R,2.000000X1.905000*%
%TD*%
%TA.AperFunction,ComponentPad*%
%ADD24O,2.000000X1.905000*%
%TD*%
%TA.AperFunction,ComponentPad*%
%ADD25R,2.800000X2.800000*%
%TD*%
%TA.AperFunction,ComponentPad*%
%ADD26C,2.800000*%
%TD*%
%TA.AperFunction,ComponentPad*%
%ADD27RoundRect,0.250000X-0.620000X-0.845000X0.620000X-0.845000X0.620000X0.845000X-0.620000X0.845000X0*%
%TD*%
%TA.AperFunction,ComponentPad*%
%ADD28R,1.800000X1.800000*%
%TD*%
%TA.AperFunction,ComponentPad*%
%ADD29C,1.800000*%
%TD*%
%TA.AperFunction,ComponentPad*%
%ADD30R,1.600000X1.600000*%
%TD*%
%TA.AperFunction,ComponentPad*%
%ADD31RoundRect,0.250000X-0.845000X0.620000X-0.845000X-0.620000X0.845000X-0.620000X0.845000X0.620000X0*%
%TD*%
%TA.AperFunction,ComponentPad*%
%ADD32R,2.000000X2.000000*%
%TD*%
%TA.AperFunction,ComponentPad*%
%ADD33C,2.000000*%
%TD*%
%TA.AperFunction,ComponentPad*%
%ADD34C,2.400000*%
%TD*%
%TA.AperFunction,ComponentPad*%
%ADD35O,2.400000X2.400000*%
%TD*%
%TA.AperFunction,SMDPad,CuDef*%
%ADD36FreePoly0,0.000000*%
%TD*%
%TA.AperFunction,SMDPad,CuDef*%
%ADD37FreePoly1,0.000000*%
%TD*%
%TA.AperFunction,ViaPad*%
%ADD38C,1.600000*%
%TD*%
%TA.AperFunction,Conductor*%
%ADD39C,2.000000*%
%TD*%
%TA.AperFunction,Conductor*%
%ADD40C,0.800000*%
%TD*%
%TA.AperFunction,Conductor*%
%ADD41C,1.200000*%
%TD*%
%TA.AperFunction,Profile*%
%ADD42C,0.050000*%
%TD*%
%ADD43C,0.150000*%
G04 APERTURE END LIST*
D10*
X106302776Y-22333726D02*
G75*
G02*
X102697224Y-22333726I-1802776J0D01*
G01*
X102697224Y-22333726D02*
G75*
G02*
X106302776Y-22333726I1802776J0D01*
G01*
X47481541Y-22333726D02*
G75*
G02*
X43875989Y-22333726I-1802776J0D01*
G01*
X43875989Y-22333726D02*
G75*
G02*
X47481541Y-22333726I1802776J0D01*
G01*
X46988949Y-80000000D02*
G75*
G02*
X43383397Y-80000000I-1802776J0D01*
G01*
X43383397Y-80000000D02*
G75*
G02*
X46988949Y-80000000I1802776J0D01*
G01*
X105737127Y-80000000D02*
G75*
G02*
X102131575Y-80000000I-1802776J0D01*
G01*
X102131575Y-80000000D02*
G75*
G02*
X105737127Y-80000000I1802776J0D01*
G01*
D11*
D12*
X63301483Y-38884885D02*
X63301483Y-37384885D01*
X63301483Y-37384885D02*
X62801483Y-38456314D01*
X62801483Y-38456314D02*
X62301483Y-37384885D01*
X62301483Y-37384885D02*
X62301483Y-38884885D01*
X61658625Y-37527742D02*
X61587197Y-37456314D01*
X61587197Y-37456314D02*
X61444340Y-37384885D01*
X61444340Y-37384885D02*
X61087197Y-37384885D01*
X61087197Y-37384885D02*
X60944340Y-37456314D01*
X60944340Y-37456314D02*
X60872911Y-37527742D01*
X60872911Y-37527742D02*
X60801482Y-37670599D01*
X60801482Y-37670599D02*
X60801482Y-37813457D01*
X60801482Y-37813457D02*
X60872911Y-38027742D01*
X60872911Y-38027742D02*
X61730054Y-38884885D01*
X61730054Y-38884885D02*
X60801482Y-38884885D01*
D13*
D14*
X95260652Y-22234438D02*
X95260652Y-20234438D01*
X94403509Y-22139200D02*
X94213033Y-22234438D01*
X94213033Y-22234438D02*
X93832081Y-22234438D01*
X93832081Y-22234438D02*
X93641604Y-22139200D01*
X93641604Y-22139200D02*
X93546366Y-21948723D01*
X93546366Y-21948723D02*
X93546366Y-21853485D01*
X93546366Y-21853485D02*
X93641604Y-21663009D01*
X93641604Y-21663009D02*
X93832081Y-21567771D01*
X93832081Y-21567771D02*
X94117795Y-21567771D01*
X94117795Y-21567771D02*
X94308271Y-21472533D01*
X94308271Y-21472533D02*
X94403509Y-21282057D01*
X94403509Y-21282057D02*
X94403509Y-21186819D01*
X94403509Y-21186819D02*
X94308271Y-20996342D01*
X94308271Y-20996342D02*
X94117795Y-20901104D01*
X94117795Y-20901104D02*
X93832081Y-20901104D01*
X93832081Y-20901104D02*
X93641604Y-20996342D01*
X91832080Y-22234438D02*
X91832080Y-21186819D01*
X91832080Y-21186819D02*
X91927318Y-20996342D01*
X91927318Y-20996342D02*
X92117794Y-20901104D01*
X92117794Y-20901104D02*
X92498747Y-20901104D01*
X92498747Y-20901104D02*
X92689223Y-20996342D01*
X91832080Y-22139200D02*
X92022556Y-22234438D01*
X92022556Y-22234438D02*
X92498747Y-22234438D01*
X92498747Y-22234438D02*
X92689223Y-22139200D01*
X92689223Y-22139200D02*
X92784461Y-21948723D01*
X92784461Y-21948723D02*
X92784461Y-21758247D01*
X92784461Y-21758247D02*
X92689223Y-21567771D01*
X92689223Y-21567771D02*
X92498747Y-21472533D01*
X92498747Y-21472533D02*
X92022556Y-21472533D01*
X92022556Y-21472533D02*
X91832080Y-21377295D01*
X90022556Y-22234438D02*
X90022556Y-21186819D01*
X90022556Y-21186819D02*
X90117794Y-20996342D01*
X90117794Y-20996342D02*
X90308270Y-20901104D01*
X90308270Y-20901104D02*
X90689223Y-20901104D01*
X90689223Y-20901104D02*
X90879699Y-20996342D01*
X90022556Y-22139200D02*
X90213032Y-22234438D01*
X90213032Y-22234438D02*
X90689223Y-22234438D01*
X90689223Y-22234438D02*
X90879699Y-22139200D01*
X90879699Y-22139200D02*
X90974937Y-21948723D01*
X90974937Y-21948723D02*
X90974937Y-21758247D01*
X90974937Y-21758247D02*
X90879699Y-21567771D01*
X90879699Y-21567771D02*
X90689223Y-21472533D01*
X90689223Y-21472533D02*
X90213032Y-21472533D01*
X90213032Y-21472533D02*
X90022556Y-21377295D01*
X88213032Y-22139200D02*
X88403508Y-22234438D01*
X88403508Y-22234438D02*
X88784461Y-22234438D01*
X88784461Y-22234438D02*
X88974937Y-22139200D01*
X88974937Y-22139200D02*
X89070175Y-22043961D01*
X89070175Y-22043961D02*
X89165413Y-21853485D01*
X89165413Y-21853485D02*
X89165413Y-21282057D01*
X89165413Y-21282057D02*
X89070175Y-21091580D01*
X89070175Y-21091580D02*
X88974937Y-20996342D01*
X88974937Y-20996342D02*
X88784461Y-20901104D01*
X88784461Y-20901104D02*
X88403508Y-20901104D01*
X88403508Y-20901104D02*
X88213032Y-20996342D01*
X85927317Y-21663009D02*
X84974936Y-21663009D01*
X86117793Y-22234438D02*
X85451127Y-20234438D01*
X85451127Y-20234438D02*
X84784460Y-22234438D01*
D11*
D12*
X63234734Y-41332349D02*
X63234734Y-39832349D01*
X63234734Y-39832349D02*
X62734734Y-40903778D01*
X62734734Y-40903778D02*
X62234734Y-39832349D01*
X62234734Y-39832349D02*
X62234734Y-41332349D01*
X60734733Y-41332349D02*
X61591876Y-41332349D01*
X61163305Y-41332349D02*
X61163305Y-39832349D01*
X61163305Y-39832349D02*
X61306162Y-40046635D01*
X61306162Y-40046635D02*
X61449019Y-40189492D01*
X61449019Y-40189492D02*
X61591876Y-40260921D01*
D11*
D12*
X63030334Y-70372857D02*
X63030334Y-68872857D01*
X63030334Y-68872857D02*
X62530334Y-69944286D01*
X62530334Y-69944286D02*
X62030334Y-68872857D01*
X62030334Y-68872857D02*
X62030334Y-70372857D01*
X61030333Y-68872857D02*
X60887476Y-68872857D01*
X60887476Y-68872857D02*
X60744619Y-68944286D01*
X60744619Y-68944286D02*
X60673191Y-69015714D01*
X60673191Y-69015714D02*
X60601762Y-69158571D01*
X60601762Y-69158571D02*
X60530333Y-69444286D01*
X60530333Y-69444286D02*
X60530333Y-69801429D01*
X60530333Y-69801429D02*
X60601762Y-70087143D01*
X60601762Y-70087143D02*
X60673191Y-70230000D01*
X60673191Y-70230000D02*
X60744619Y-70301429D01*
X60744619Y-70301429D02*
X60887476Y-70372857D01*
X60887476Y-70372857D02*
X61030333Y-70372857D01*
X61030333Y-70372857D02*
X61173191Y-70301429D01*
X61173191Y-70301429D02*
X61244619Y-70230000D01*
X61244619Y-70230000D02*
X61316048Y-70087143D01*
X61316048Y-70087143D02*
X61387476Y-69801429D01*
X61387476Y-69801429D02*
X61387476Y-69444286D01*
X61387476Y-69444286D02*
X61316048Y-69158571D01*
X61316048Y-69158571D02*
X61244619Y-69015714D01*
X61244619Y-69015714D02*
X61173191Y-68944286D01*
X61173191Y-68944286D02*
X61030333Y-68872857D01*
D11*
D12*
G36*
X94768946Y-82691263D02*
G01*
X94859084Y-82651482D01*
X94876901Y-82578422D01*
X94873943Y-82474424D01*
X94865071Y-82360264D01*
X94853713Y-82261620D01*
X94838570Y-82156474D01*
X94819641Y-82044824D01*
X94796927Y-81926672D01*
X94770426Y-81802016D01*
X94755757Y-81737250D01*
X94731127Y-81637497D01*
X94704256Y-81539127D01*
X94675142Y-81442141D01*
X94643787Y-81346538D01*
X94610189Y-81252318D01*
X94574349Y-81159482D01*
X94559385Y-81122735D01*
X94513523Y-81027841D01*
X94457698Y-80943806D01*
X94411863Y-80894124D01*
X94326948Y-80837674D01*
X94230656Y-80815785D01*
X94216957Y-80815478D01*
X94117764Y-80836487D01*
X94062595Y-80875073D01*
X94010880Y-80958002D01*
X93989616Y-81056523D01*
X93988834Y-81064605D01*
X93978793Y-81161875D01*
X93965777Y-81272578D01*
X93951358Y-81380289D01*
X93935537Y-81485008D01*
X93923377Y-81557976D01*
X93903044Y-81665198D01*
X93880023Y-81765971D01*
X93851676Y-81860593D01*
X93841311Y-81887215D01*
X93815910Y-81930202D01*
X93783182Y-81940949D01*
X93741660Y-81928248D01*
X93704047Y-81881842D01*
X93655554Y-81784186D01*
X93616055Y-81688427D01*
X93578758Y-81589895D01*
X93537478Y-81474333D01*
X93501585Y-81369622D01*
X93472993Y-81283935D01*
X93436784Y-81183368D01*
X93398499Y-81093182D01*
X93352947Y-81004129D01*
X93315701Y-80943949D01*
X93248015Y-80870806D01*
X93156137Y-80825640D01*
X93074877Y-80815478D01*
X92976264Y-80835881D01*
X92918562Y-80887773D01*
X92883391Y-80980708D01*
X92872079Y-81086610D01*
X92871667Y-81114919D01*
X92873257Y-81217181D01*
X92877579Y-81316156D01*
X92879972Y-81355254D01*
X92885403Y-81457770D01*
X92889353Y-81556269D01*
X92891207Y-81660069D01*
X92888528Y-81788121D01*
X92880491Y-81905320D01*
X92867095Y-82011664D01*
X92842817Y-82129333D01*
X92810166Y-82230042D01*
X92759934Y-82328509D01*
X92719748Y-82380586D01*
X92660818Y-82461229D01*
X92655757Y-82491960D01*
X92690047Y-82586318D01*
X92735380Y-82630202D01*
X92825526Y-82677846D01*
X92915143Y-82691263D01*
X93013307Y-82667490D01*
X93050453Y-82636064D01*
X93102011Y-82546801D01*
X93126168Y-82474375D01*
X93145963Y-82375459D01*
X93160897Y-82269345D01*
X93170968Y-82156030D01*
X93175731Y-82053173D01*
X93176971Y-81963419D01*
X93175425Y-81864728D01*
X93171456Y-81761238D01*
X93165980Y-81658512D01*
X93158634Y-81544426D01*
X93157431Y-81527201D01*
X93150157Y-81428114D01*
X93146196Y-81352323D01*
X93153035Y-81297613D01*
X93181367Y-81284424D01*
X93257021Y-81351194D01*
X93275157Y-81403126D01*
X93308005Y-81505942D01*
X93339871Y-81603241D01*
X93375088Y-81707685D01*
X93409023Y-81804924D01*
X93417306Y-81828108D01*
X93454980Y-81927091D01*
X93493813Y-82017959D01*
X93538321Y-82109407D01*
X93556524Y-82143182D01*
X93614334Y-82228199D01*
X93685897Y-82294908D01*
X93695254Y-82300963D01*
X93789236Y-82339710D01*
X93858897Y-82347369D01*
X93963865Y-82327662D01*
X94048508Y-82268543D01*
X94106683Y-82182905D01*
X94139776Y-82098241D01*
X94165997Y-82001106D01*
X94188132Y-81898677D01*
X94206666Y-81794989D01*
X94210607Y-81770467D01*
X94224773Y-81669320D01*
X94236496Y-81564204D01*
X94245778Y-81455119D01*
X94251895Y-81356414D01*
X94252616Y-81342065D01*
X94295488Y-81253942D01*
X94303907Y-81253161D01*
X94381798Y-81312496D01*
X94395743Y-81343042D01*
X94425637Y-81437409D01*
X94452672Y-81541360D01*
X94474303Y-81641804D01*
X94489043Y-81722107D01*
X94505286Y-81830459D01*
X94516887Y-81936186D01*
X94523848Y-82039287D01*
X94526168Y-82139762D01*
X94523700Y-82238273D01*
X94517566Y-82336324D01*
X94514933Y-82368862D01*
X94507610Y-82466816D01*
X94506629Y-82514431D01*
X94541166Y-82607129D01*
X94595045Y-82646810D01*
X94688160Y-82681495D01*
X94768946Y-82691263D01*
G37*
G36*
X91765837Y-81472116D02*
G01*
X91866272Y-81479269D01*
X91974930Y-81501067D01*
X92077054Y-81537398D01*
X92172644Y-81588262D01*
X92259473Y-81650605D01*
X92335799Y-81721374D01*
X92401622Y-81800570D01*
X92456943Y-81888192D01*
X92490809Y-81957481D01*
X92525064Y-82051148D01*
X92548712Y-82158275D01*
X92556594Y-82267257D01*
X92556184Y-82292006D01*
X92544184Y-82394779D01*
X92511364Y-82492477D01*
X92451570Y-82579888D01*
X92370487Y-82643297D01*
X92272318Y-82680386D01*
X92168248Y-82691263D01*
X92075646Y-82682867D01*
X91980615Y-82654237D01*
X91892742Y-82605289D01*
X91849288Y-82572660D01*
X91777526Y-82506165D01*
X91719330Y-82426503D01*
X91703698Y-82517972D01*
X91656803Y-82605778D01*
X91652813Y-82611037D01*
X91574685Y-82672479D01*
X91477041Y-82691263D01*
X91394493Y-82679250D01*
X91312421Y-82618478D01*
X91284054Y-82568161D01*
X91262595Y-82472421D01*
X91279204Y-82417222D01*
X91330495Y-82392309D01*
X91365071Y-82381769D01*
X91441137Y-82308656D01*
X91470958Y-82212979D01*
X91478018Y-82114361D01*
X91477999Y-82108094D01*
X91472641Y-82005481D01*
X91458967Y-81905289D01*
X91429169Y-81909685D01*
X91419509Y-81909076D01*
X91350034Y-81840321D01*
X91349818Y-81839344D01*
X91694905Y-81839344D01*
X91705411Y-81933273D01*
X91727382Y-82035272D01*
X91762805Y-82130481D01*
X91772264Y-82150519D01*
X91824357Y-82233814D01*
X91894696Y-82304382D01*
X91982257Y-82352742D01*
X92078855Y-82368862D01*
X92152808Y-82358543D01*
X92235659Y-82306336D01*
X92278524Y-82231720D01*
X92292812Y-82133900D01*
X92286217Y-82064169D01*
X92251596Y-81971021D01*
X92187299Y-81891612D01*
X92115324Y-81840349D01*
X92022927Y-81805889D01*
X91916678Y-81794403D01*
X91892898Y-81794798D01*
X91790103Y-81807086D01*
X91694905Y-81839344D01*
X91349818Y-81839344D01*
X91335380Y-81773886D01*
X91329518Y-81702079D01*
X91330591Y-81682677D01*
X91372571Y-81592109D01*
X91451639Y-81534528D01*
X91542120Y-81498930D01*
X91645646Y-81478108D01*
X91751081Y-81472002D01*
X91765837Y-81472116D01*
G37*
G36*
X90489605Y-81473224D02*
G01*
X90597681Y-81484901D01*
X90696252Y-81508944D01*
X90794626Y-81550160D01*
X90880025Y-81603970D01*
X90957545Y-81674621D01*
X91017864Y-81757278D01*
X91057277Y-81839786D01*
X91083771Y-81934953D01*
X91092602Y-82034738D01*
X91092410Y-82049116D01*
X91078678Y-82150989D01*
X91043265Y-82242344D01*
X91003492Y-82303390D01*
X90926517Y-82370327D01*
X90974328Y-82398646D01*
X91043983Y-82477089D01*
X91067201Y-82578911D01*
X91064981Y-82609632D01*
X91020795Y-82701032D01*
X90965454Y-82743314D01*
X90875226Y-82781632D01*
X90827805Y-82797111D01*
X90730146Y-82816803D01*
X90719480Y-82818353D01*
X90622679Y-82832435D01*
X90561141Y-82840735D01*
X90464558Y-82857202D01*
X90366713Y-82882260D01*
X90342649Y-82892114D01*
X90283182Y-82974584D01*
X90299709Y-83025703D01*
X90383321Y-83081563D01*
X90415450Y-83092399D01*
X90514292Y-83112968D01*
X90617794Y-83119176D01*
X90625926Y-83119141D01*
X90729256Y-83111341D01*
X90828332Y-83083517D01*
X90855225Y-83069165D01*
X90907466Y-82984354D01*
X90900628Y-82937948D01*
X90893300Y-82891053D01*
X90967550Y-82839274D01*
X91065980Y-82859790D01*
X91144382Y-82921339D01*
X91148589Y-82926526D01*
X91197743Y-83016773D01*
X91212770Y-83113803D01*
X91202492Y-83192894D01*
X91156811Y-83283684D01*
X91082833Y-83352184D01*
X91040224Y-83377937D01*
X90942985Y-83416348D01*
X90841765Y-83435990D01*
X90740893Y-83441577D01*
X90682907Y-83439967D01*
X90581717Y-83428954D01*
X90484623Y-83407509D01*
X90391625Y-83375631D01*
X90381585Y-83371484D01*
X90288315Y-83323876D01*
X90208020Y-83265105D01*
X90134682Y-83187564D01*
X90084450Y-83107613D01*
X90050683Y-83011291D01*
X90039427Y-82906196D01*
X90040603Y-82872697D01*
X90060658Y-82776791D01*
X90114654Y-82690774D01*
X90139262Y-82667528D01*
X90221488Y-82613352D01*
X90315422Y-82577445D01*
X90331383Y-82573003D01*
X90428791Y-82551300D01*
X90531468Y-82535577D01*
X90635380Y-82524689D01*
X90718422Y-82507592D01*
X90741870Y-82481214D01*
X90713538Y-82451416D01*
X90700858Y-82447930D01*
X90602651Y-82441158D01*
X90538080Y-82430255D01*
X90433391Y-82397227D01*
X90343540Y-82346965D01*
X90268527Y-82279469D01*
X90247052Y-82253599D01*
X90190723Y-82161474D01*
X90157865Y-82060285D01*
X90148360Y-81961465D01*
X90148437Y-81948621D01*
X90150943Y-81920432D01*
X90375505Y-81920432D01*
X90390854Y-82011465D01*
X90445359Y-82093356D01*
X90533259Y-82145193D01*
X90634403Y-82159790D01*
X90696999Y-82154422D01*
X90789253Y-82114361D01*
X90816644Y-82086257D01*
X90845917Y-81991263D01*
X90832937Y-81923728D01*
X90767271Y-81847648D01*
X90741108Y-81832309D01*
X90643585Y-81801890D01*
X90545010Y-81794403D01*
X90487205Y-81796712D01*
X90389672Y-81813942D01*
X90387956Y-81820426D01*
X90375505Y-81920432D01*
X90150943Y-81920432D01*
X90157152Y-81850579D01*
X90082903Y-81863279D01*
X90017934Y-81818827D01*
X89999860Y-81726503D01*
X90003056Y-81684860D01*
X90046012Y-81589705D01*
X90130774Y-81529644D01*
X90139001Y-81526097D01*
X90235417Y-81494518D01*
X90332484Y-81477631D01*
X90438520Y-81472002D01*
X90489605Y-81473224D01*
G37*
G36*
X89625191Y-81253161D02*
G01*
X89724177Y-81231282D01*
X89763433Y-81202358D01*
X89809274Y-81113803D01*
X89814235Y-81061186D01*
X89791123Y-80962337D01*
X89752686Y-80907801D01*
X89666400Y-80855327D01*
X89602721Y-80846741D01*
X89505215Y-80865822D01*
X89461549Y-80895589D01*
X89415707Y-80982150D01*
X89410746Y-81034319D01*
X89429448Y-81130576D01*
X89469853Y-81191123D01*
X89552895Y-81242922D01*
X89625191Y-81253161D01*
G37*
G36*
X89622260Y-82691263D02*
G01*
X89725043Y-82669414D01*
X89794135Y-82594912D01*
X89816405Y-82494628D01*
X89817166Y-82467536D01*
X89809032Y-82367278D01*
X89789111Y-82267352D01*
X89774668Y-82212547D01*
X89749360Y-82115538D01*
X89733732Y-82017478D01*
X89730216Y-81949253D01*
X89744382Y-81853510D01*
X89797138Y-81795380D01*
X89869923Y-81747020D01*
X89895324Y-81684005D01*
X89857733Y-81591890D01*
X89855268Y-81588750D01*
X89781537Y-81522713D01*
X89751221Y-81505219D01*
X89654867Y-81474078D01*
X89622260Y-81472002D01*
X89524617Y-81498350D01*
X89484996Y-81546741D01*
X89456557Y-81642946D01*
X89449825Y-81735296D01*
X89454847Y-81833003D01*
X89468128Y-81939859D01*
X89484728Y-82037709D01*
X89492323Y-82077236D01*
X89508810Y-82179330D01*
X89514305Y-82259930D01*
X89486461Y-82354207D01*
X89405505Y-82413445D01*
X89393649Y-82419665D01*
X89360432Y-82476329D01*
X89387787Y-82561814D01*
X89453052Y-82636480D01*
X89474249Y-82651695D01*
X89569605Y-82687399D01*
X89622260Y-82691263D01*
G37*
G36*
X88760572Y-82691263D02*
G01*
X88868987Y-82681409D01*
X88962873Y-82651850D01*
X89050152Y-82595893D01*
X89080041Y-82566699D01*
X89139805Y-82479544D01*
X89174666Y-82385198D01*
X89190603Y-82288684D01*
X89193370Y-82222316D01*
X89187661Y-82118879D01*
X89170533Y-82020572D01*
X89137616Y-81916106D01*
X89102023Y-81839344D01*
X89044840Y-81748733D01*
X88976606Y-81669791D01*
X88897321Y-81602519D01*
X88848499Y-81570188D01*
X88754458Y-81522725D01*
X88654234Y-81490796D01*
X88547829Y-81474399D01*
X88486043Y-81472002D01*
X88382354Y-81480145D01*
X88285153Y-81509776D01*
X88263293Y-81521339D01*
X88193140Y-81594048D01*
X88179274Y-81660069D01*
X88207324Y-81756049D01*
X88251081Y-81811988D01*
X88321423Y-81862791D01*
X88390788Y-81885750D01*
X88444033Y-81862302D01*
X88522191Y-81806127D01*
X88618946Y-81784822D01*
X88631612Y-81784633D01*
X88731337Y-81798661D01*
X88819440Y-81845143D01*
X88846057Y-81869630D01*
X88901488Y-81954193D01*
X88925166Y-82050967D01*
X88927145Y-82092868D01*
X88913027Y-82194234D01*
X88866566Y-82280222D01*
X88853384Y-82294612D01*
X88767411Y-82350300D01*
X88664628Y-82368790D01*
X88657013Y-82368862D01*
X88559474Y-82358472D01*
X88511933Y-82346880D01*
X88419458Y-82309394D01*
X88378576Y-82283377D01*
X88304326Y-82253091D01*
X88233641Y-82320784D01*
X88232519Y-82341507D01*
X88256821Y-82441402D01*
X88317956Y-82524403D01*
X88329727Y-82535924D01*
X88409590Y-82594915D01*
X88500979Y-82639901D01*
X88522679Y-82648276D01*
X88618498Y-82676108D01*
X88715446Y-82689751D01*
X88760572Y-82691263D01*
G37*
G36*
X86894068Y-82691263D02*
G01*
X86993835Y-82684012D01*
X87093552Y-82659286D01*
X87182763Y-82617013D01*
X87261516Y-82547978D01*
X87301426Y-82454158D01*
X87304396Y-82415757D01*
X87278506Y-82320990D01*
X87198883Y-82278981D01*
X87138311Y-82295101D01*
X87049318Y-82335839D01*
X87008862Y-82348346D01*
X86912577Y-82365977D01*
X86852058Y-82368862D01*
X86751182Y-82360361D01*
X86685973Y-82341995D01*
X86618073Y-82278492D01*
X86663991Y-82237459D01*
X86759933Y-82216164D01*
X86854501Y-82202288D01*
X86956001Y-82183922D01*
X87053357Y-82159358D01*
X87058199Y-82157836D01*
X87149601Y-82111474D01*
X87190090Y-82075771D01*
X87237527Y-81984218D01*
X87245289Y-81911151D01*
X87231658Y-81809692D01*
X87194338Y-81718678D01*
X87183251Y-81699637D01*
X87117882Y-81618453D01*
X87038094Y-81556128D01*
X87002512Y-81535505D01*
X86907165Y-81496808D01*
X86808661Y-81477025D01*
X86720167Y-81472002D01*
X86616944Y-81478872D01*
X86514421Y-81501817D01*
X86463224Y-81520851D01*
X86381178Y-81575448D01*
X86348918Y-81658604D01*
X86383300Y-81752479D01*
X86385554Y-81755324D01*
X86458911Y-81821361D01*
X86471039Y-81828597D01*
X86557990Y-81855952D01*
X86591695Y-81845694D01*
X86621981Y-81820781D01*
X86707011Y-81772395D01*
X86805933Y-81753963D01*
X86829588Y-81753370D01*
X86927533Y-81765231D01*
X86956106Y-81776329D01*
X87001535Y-81829085D01*
X86933635Y-81890146D01*
X86832620Y-81912678D01*
X86740683Y-81925317D01*
X86635163Y-81945028D01*
X86539807Y-81974865D01*
X86466154Y-82013244D01*
X86400237Y-82088578D01*
X86375126Y-82189878D01*
X86374319Y-82215478D01*
X86386474Y-82315842D01*
X86422939Y-82414337D01*
X86437822Y-82442135D01*
X86498529Y-82525061D01*
X86577455Y-82594443D01*
X86620027Y-82621898D01*
X86713977Y-82664167D01*
X86809391Y-82685776D01*
X86894068Y-82691263D01*
G37*
G36*
X85992812Y-82691263D02*
G01*
X86087573Y-82660609D01*
X86097836Y-82604312D01*
X86073267Y-82495754D01*
X86053781Y-82395027D01*
X86037472Y-82287409D01*
X86027305Y-82177469D01*
X86025540Y-82115826D01*
X86028201Y-82013607D01*
X86039708Y-81915213D01*
X86041660Y-81906266D01*
X86081115Y-81815423D01*
X86082693Y-81813942D01*
X86157920Y-81772421D01*
X86218492Y-81695240D01*
X86186402Y-81600862D01*
X86184298Y-81597543D01*
X86114305Y-81524783D01*
X86089043Y-81508150D01*
X85994455Y-81474862D01*
X85953733Y-81472002D01*
X85856875Y-81496999D01*
X85791766Y-81582238D01*
X85771677Y-81682225D01*
X85770062Y-81727969D01*
X85776794Y-81826818D01*
X85792689Y-81925880D01*
X85814989Y-82028005D01*
X85817934Y-82040111D01*
X85825261Y-82039623D01*
X85793393Y-81938183D01*
X85758606Y-81846720D01*
X85707681Y-81740292D01*
X85651566Y-81651601D01*
X85574124Y-81565682D01*
X85488572Y-81507479D01*
X85394911Y-81476991D01*
X85334822Y-81472002D01*
X85234401Y-81487078D01*
X85148435Y-81537033D01*
X85123307Y-81563349D01*
X85074285Y-81650145D01*
X85051215Y-81752590D01*
X85047592Y-81822247D01*
X85049546Y-81822247D01*
X84994916Y-81721346D01*
X84933607Y-81637547D01*
X84851221Y-81559563D01*
X84759217Y-81506206D01*
X84657597Y-81477475D01*
X84584508Y-81472002D01*
X84481303Y-81487562D01*
X84391436Y-81539120D01*
X84364689Y-81566280D01*
X84311871Y-81651184D01*
X84285980Y-81752696D01*
X84283112Y-81805150D01*
X84293589Y-81906739D01*
X84317953Y-82003444D01*
X84320237Y-82010802D01*
X84342944Y-82106679D01*
X84353454Y-82196427D01*
X84334632Y-82299970D01*
X84271761Y-82377104D01*
X84219609Y-82403545D01*
X84181507Y-82429434D01*
X84168318Y-82471444D01*
X84192561Y-82568290D01*
X84219609Y-82615059D01*
X84298331Y-82676677D01*
X84388625Y-82691263D01*
X84484731Y-82672265D01*
X84562873Y-82610120D01*
X84566922Y-82604801D01*
X84612854Y-82512444D01*
X84629914Y-82414864D01*
X84630914Y-82381563D01*
X84624384Y-82278296D01*
X84606764Y-82174386D01*
X84591346Y-82109965D01*
X84569840Y-82013532D01*
X84558129Y-81912616D01*
X84584508Y-81823224D01*
X84660223Y-81794403D01*
X84758758Y-81815627D01*
X84840710Y-81873344D01*
X84869783Y-81905289D01*
X84928911Y-81989095D01*
X84977454Y-82079007D01*
X85016901Y-82171104D01*
X85025122Y-82193007D01*
X85020173Y-82292489D01*
X85019748Y-82333203D01*
X85024694Y-82434342D01*
X85044787Y-82531980D01*
X85054919Y-82557418D01*
X85113170Y-82644077D01*
X85208539Y-82687995D01*
X85250802Y-82691263D01*
X85322121Y-82676120D01*
X85353384Y-82623363D01*
X85336915Y-82526842D01*
X85320199Y-82430156D01*
X85318213Y-82418688D01*
X85302628Y-82312569D01*
X85292144Y-82203592D01*
X85287106Y-82104322D01*
X85285973Y-82028387D01*
X85290554Y-81927021D01*
X85309909Y-81844228D01*
X85382693Y-81794403D01*
X85475616Y-81826409D01*
X85551221Y-81903488D01*
X85604466Y-81988332D01*
X85653864Y-82086975D01*
X85697034Y-82189466D01*
X85729698Y-82282300D01*
X85757594Y-82378080D01*
X85764689Y-82405987D01*
X85764689Y-82435296D01*
X85778535Y-82532311D01*
X85827704Y-82619944D01*
X85910960Y-82677612D01*
X85992812Y-82691263D01*
G37*
G36*
X83548681Y-81477297D02*
G01*
X83648739Y-81495354D01*
X83741870Y-81526224D01*
X83773530Y-81539841D01*
X83865039Y-81586625D01*
X83948988Y-81645415D01*
X84009295Y-81717285D01*
X84033007Y-81816385D01*
X84016887Y-81902358D01*
X83958757Y-81943391D01*
X83929448Y-81938995D01*
X83938617Y-81954718D01*
X83978471Y-82051018D01*
X83999174Y-82152990D01*
X84005163Y-82256510D01*
X84004129Y-82295206D01*
X83988608Y-82400835D01*
X83949520Y-82499801D01*
X83887438Y-82579399D01*
X83856526Y-82605617D01*
X83767359Y-82655868D01*
X83672588Y-82682414D01*
X83564061Y-82691263D01*
X83529962Y-82690464D01*
X83431735Y-82678486D01*
X83329754Y-82648318D01*
X83235310Y-82600404D01*
X83217370Y-82588724D01*
X83135338Y-82522483D01*
X83066092Y-82443171D01*
X83009630Y-82350788D01*
X82986551Y-82300494D01*
X82954866Y-82205757D01*
X82935855Y-82105611D01*
X82933154Y-82060628D01*
X83159595Y-82060628D01*
X83162789Y-82110133D01*
X83191626Y-82205139D01*
X83250453Y-82283377D01*
X83279815Y-82308004D01*
X83373955Y-82354754D01*
X83477110Y-82368862D01*
X83484578Y-82368793D01*
X83586287Y-82351277D01*
X83673482Y-82298520D01*
X83682710Y-82289500D01*
X83735100Y-82200993D01*
X83749685Y-82099706D01*
X83738430Y-82008013D01*
X83704663Y-81915627D01*
X83654431Y-81831039D01*
X83568392Y-81804743D01*
X83468806Y-81794403D01*
X83435849Y-81795426D01*
X83339068Y-81812877D01*
X83247034Y-81859860D01*
X83226540Y-81877209D01*
X83174026Y-81961981D01*
X83159595Y-82060628D01*
X82933154Y-82060628D01*
X82929518Y-82000055D01*
X82936110Y-81896488D01*
X82959786Y-81790891D01*
X83000681Y-81698911D01*
X83067271Y-81611709D01*
X83153176Y-81544175D01*
X83244134Y-81502700D01*
X83348830Y-81478687D01*
X83451709Y-81472002D01*
X83548681Y-81477297D01*
G37*
G36*
X82623726Y-82691263D02*
G01*
X82695045Y-82668304D01*
X82720935Y-82604312D01*
X82702864Y-82502881D01*
X82686571Y-82404300D01*
X82667611Y-82277294D01*
X82651812Y-82155356D01*
X82639172Y-82038485D01*
X82629693Y-81926683D01*
X82623373Y-81819949D01*
X82620213Y-81718283D01*
X82619818Y-81669351D01*
X82620683Y-81561392D01*
X82623278Y-81463626D01*
X82628361Y-81364371D01*
X82637892Y-81259023D01*
X82655975Y-81155685D01*
X82685371Y-81055234D01*
X82721912Y-80966420D01*
X82753648Y-80872707D01*
X82754152Y-80862861D01*
X82712709Y-80770566D01*
X82686252Y-80746113D01*
X82599241Y-80698256D01*
X82545568Y-80690425D01*
X82448642Y-80726408D01*
X82396092Y-80817920D01*
X82373286Y-80921331D01*
X82361669Y-81029381D01*
X82357014Y-81128006D01*
X82356036Y-81206266D01*
X82357448Y-81314115D01*
X82361684Y-81421261D01*
X82368744Y-81527705D01*
X82378628Y-81633447D01*
X82391337Y-81738487D01*
X82406869Y-81842824D01*
X82425225Y-81946459D01*
X82446406Y-82049392D01*
X82459106Y-82047438D01*
X82417509Y-81948109D01*
X82369227Y-81854857D01*
X82314259Y-81767682D01*
X82252607Y-81686585D01*
X82214375Y-81642972D01*
X82133195Y-81568173D01*
X82047435Y-81514745D01*
X81945481Y-81480183D01*
X81862177Y-81472002D01*
X81763251Y-81485869D01*
X81676911Y-81531817D01*
X81651151Y-81556022D01*
X81594701Y-81643055D01*
X81573196Y-81739199D01*
X81572505Y-81761674D01*
X81587742Y-81865679D01*
X81628855Y-81954671D01*
X81664829Y-82003475D01*
X81734477Y-82073239D01*
X81816479Y-82133421D01*
X81901744Y-82179818D01*
X81853332Y-82271202D01*
X81778151Y-82337662D01*
X81680454Y-82367201D01*
X81646755Y-82368862D01*
X81590579Y-82368862D01*
X81582274Y-82368862D01*
X81538799Y-82450439D01*
X81555955Y-82548585D01*
X81593021Y-82617013D01*
X81673931Y-82674948D01*
X81775551Y-82691190D01*
X81784019Y-82691263D01*
X81896750Y-82673093D01*
X81994610Y-82618585D01*
X82064799Y-82545403D01*
X82124660Y-82446985D01*
X82165112Y-82350082D01*
X82198955Y-82237028D01*
X82213398Y-82174445D01*
X82219748Y-82130969D01*
X82160413Y-82049160D01*
X82129867Y-82044019D01*
X82032494Y-82020251D01*
X81972575Y-81986378D01*
X81915330Y-81903854D01*
X81911514Y-81870607D01*
X81929588Y-81813942D01*
X81982833Y-81794403D01*
X82080446Y-81827642D01*
X82134263Y-81871584D01*
X82203193Y-81948205D01*
X82261603Y-82034272D01*
X82268597Y-82046461D01*
X82312938Y-82134857D01*
X82352780Y-82227726D01*
X82385146Y-82323381D01*
X82389741Y-82340041D01*
X82389741Y-82446043D01*
X82405983Y-82543251D01*
X82454710Y-82621898D01*
X82539924Y-82677986D01*
X82623726Y-82691263D01*
G37*
G36*
X80759162Y-81472882D02*
G01*
X80866553Y-81488529D01*
X80968887Y-81523735D01*
X81056664Y-81572142D01*
X81102588Y-81605000D01*
X81177438Y-81672800D01*
X81242242Y-81751729D01*
X81296999Y-81841786D01*
X81327046Y-81906381D01*
X81360461Y-82007136D01*
X81379889Y-82112529D01*
X81385415Y-82210104D01*
X81381087Y-82291448D01*
X81361853Y-82389115D01*
X81321822Y-82484247D01*
X81262316Y-82563768D01*
X81212588Y-82607096D01*
X81125309Y-82655280D01*
X81022806Y-82683294D01*
X80918911Y-82691263D01*
X80854087Y-82688446D01*
X80746046Y-82669963D01*
X80644876Y-82634230D01*
X80550579Y-82581246D01*
X80463154Y-82511011D01*
X80391043Y-82432836D01*
X80351779Y-82340041D01*
X80374738Y-82283866D01*
X80431891Y-82261395D01*
X80514933Y-82300474D01*
X80566908Y-82337968D01*
X80657083Y-82380586D01*
X80718678Y-82398446D01*
X80818283Y-82409895D01*
X80841868Y-82409221D01*
X80941030Y-82388250D01*
X81027355Y-82333203D01*
X81085637Y-82257332D01*
X81109909Y-82161744D01*
X81100192Y-82167874D01*
X81007327Y-82201800D01*
X80950220Y-82214302D01*
X80851988Y-82222316D01*
X80792727Y-82219581D01*
X80695812Y-82202168D01*
X80597487Y-82165163D01*
X80562008Y-82146173D01*
X80480588Y-82087643D01*
X80410397Y-82009825D01*
X80394025Y-81985111D01*
X80353914Y-81894042D01*
X80349126Y-81858883D01*
X80657571Y-81858883D01*
X80659752Y-81881111D01*
X80719609Y-81961953D01*
X80780009Y-81990337D01*
X80876901Y-82003475D01*
X80899249Y-82002977D01*
X80996092Y-81989309D01*
X81082554Y-81956092D01*
X81049201Y-81883323D01*
X80982414Y-81809546D01*
X80909005Y-81769224D01*
X80809979Y-81753370D01*
X80792080Y-81753813D01*
X80697138Y-81781702D01*
X80657571Y-81858883D01*
X80349126Y-81858883D01*
X80340544Y-81795868D01*
X80345616Y-81734346D01*
X80381951Y-81634973D01*
X80446545Y-81560418D01*
X80527166Y-81510080D01*
X80623949Y-81480637D01*
X80725959Y-81472002D01*
X80759162Y-81472882D01*
G37*
G36*
X79150104Y-81253161D02*
G01*
X79249090Y-81231282D01*
X79288346Y-81202358D01*
X79334187Y-81113803D01*
X79339148Y-81061186D01*
X79316036Y-80962337D01*
X79277599Y-80907801D01*
X79191313Y-80855327D01*
X79127634Y-80846741D01*
X79030128Y-80865822D01*
X78986461Y-80895589D01*
X78940620Y-80982150D01*
X78935659Y-81034319D01*
X78954361Y-81130576D01*
X78994766Y-81191123D01*
X79077807Y-81242922D01*
X79150104Y-81253161D01*
G37*
G36*
X79147173Y-82691263D02*
G01*
X79249956Y-82669414D01*
X79319048Y-82594912D01*
X79341318Y-82494628D01*
X79342079Y-82467536D01*
X79333945Y-82367278D01*
X79314024Y-82267352D01*
X79299581Y-82212547D01*
X79274273Y-82115538D01*
X79258645Y-82017478D01*
X79255129Y-81949253D01*
X79269295Y-81853510D01*
X79322051Y-81795380D01*
X79394836Y-81747020D01*
X79420237Y-81684005D01*
X79382645Y-81591890D01*
X79380181Y-81588750D01*
X79306450Y-81522713D01*
X79276133Y-81505219D01*
X79179780Y-81474078D01*
X79147173Y-81472002D01*
X79049530Y-81498350D01*
X79009909Y-81546741D01*
X78981470Y-81642946D01*
X78974738Y-81735296D01*
X78979760Y-81833003D01*
X78993040Y-81939859D01*
X79009641Y-82037709D01*
X79017236Y-82077236D01*
X79033722Y-82179330D01*
X79039218Y-82259930D01*
X79011374Y-82354207D01*
X78930417Y-82413445D01*
X78918562Y-82419665D01*
X78885345Y-82476329D01*
X78912700Y-82561814D01*
X78977964Y-82636480D01*
X78999162Y-82651695D01*
X79094518Y-82687399D01*
X79147173Y-82691263D01*
G37*
G36*
X78534612Y-82691263D02*
G01*
X78629373Y-82660609D01*
X78639637Y-82604312D01*
X78615067Y-82495754D01*
X78595581Y-82395027D01*
X78579272Y-82287409D01*
X78569106Y-82177469D01*
X78567341Y-82115826D01*
X78570001Y-82013607D01*
X78581509Y-81915213D01*
X78583461Y-81906266D01*
X78622916Y-81815423D01*
X78624494Y-81813942D01*
X78699720Y-81772421D01*
X78760293Y-81695240D01*
X78728202Y-81600862D01*
X78726099Y-81597543D01*
X78656105Y-81524783D01*
X78630844Y-81508150D01*
X78536256Y-81474862D01*
X78495533Y-81472002D01*
X78398676Y-81496999D01*
X78333566Y-81582238D01*
X78313477Y-81682225D01*
X78311863Y-81727969D01*
X78318320Y-81826544D01*
X78333566Y-81924956D01*
X78354955Y-82026172D01*
X78357780Y-82038157D01*
X78366573Y-82036203D01*
X78326252Y-81935374D01*
X78283139Y-81844463D01*
X78221315Y-81738675D01*
X78154530Y-81650519D01*
X78082784Y-81579994D01*
X77986124Y-81516631D01*
X77881713Y-81480818D01*
X77792602Y-81472002D01*
X77689494Y-81485260D01*
X77598103Y-81529545D01*
X77557641Y-81566280D01*
X77501976Y-81651184D01*
X77474690Y-81752696D01*
X77471667Y-81805150D01*
X77482972Y-81907071D01*
X77509259Y-82009226D01*
X77511723Y-82017152D01*
X77536270Y-82115949D01*
X77544452Y-82202288D01*
X77524599Y-82302604D01*
X77458287Y-82378876D01*
X77403279Y-82405987D01*
X77354431Y-82471444D01*
X77375436Y-82560348D01*
X77434153Y-82641506D01*
X77446266Y-82651695D01*
X77540239Y-82688790D01*
X77580111Y-82691263D01*
X77678614Y-82672265D01*
X77759550Y-82610120D01*
X77763782Y-82604801D01*
X77811817Y-82512444D01*
X77829659Y-82414864D01*
X77830704Y-82381563D01*
X77821541Y-82276536D01*
X77801486Y-82170796D01*
X77782833Y-82092868D01*
X77763224Y-81996664D01*
X77752547Y-81912616D01*
X77786047Y-81820378D01*
X77871249Y-81794403D01*
X77968667Y-81813855D01*
X78056734Y-81872211D01*
X78121834Y-81948895D01*
X78128681Y-81959023D01*
X78180643Y-82046156D01*
X78227599Y-82143426D01*
X78264578Y-82236852D01*
X78297723Y-82338038D01*
X78306489Y-82368374D01*
X78306489Y-82434319D01*
X78320335Y-82531792D01*
X78369504Y-82619944D01*
X78452760Y-82677612D01*
X78534612Y-82691263D01*
G37*
G36*
X76821493Y-82691263D02*
G01*
X76921260Y-82684012D01*
X77020977Y-82659286D01*
X77110188Y-82617013D01*
X77188940Y-82547978D01*
X77228851Y-82454158D01*
X77231821Y-82415757D01*
X77205931Y-82320990D01*
X77126308Y-82278981D01*
X77065736Y-82295101D01*
X76976743Y-82335839D01*
X76936287Y-82348346D01*
X76840002Y-82365977D01*
X76779483Y-82368862D01*
X76678607Y-82360361D01*
X76613398Y-82341995D01*
X76545498Y-82278492D01*
X76591416Y-82237459D01*
X76687358Y-82216164D01*
X76781926Y-82202288D01*
X76883426Y-82183922D01*
X76980782Y-82159358D01*
X76985624Y-82157836D01*
X77077026Y-82111474D01*
X77117515Y-82075771D01*
X77164952Y-81984218D01*
X77172714Y-81911151D01*
X77159083Y-81809692D01*
X77121763Y-81718678D01*
X77110676Y-81699637D01*
X77045307Y-81618453D01*
X76965519Y-81556128D01*
X76929937Y-81535505D01*
X76834590Y-81496808D01*
X76736086Y-81477025D01*
X76647592Y-81472002D01*
X76544369Y-81478872D01*
X76441846Y-81501817D01*
X76390648Y-81520851D01*
X76308603Y-81575448D01*
X76276343Y-81658604D01*
X76310725Y-81752479D01*
X76312979Y-81755324D01*
X76386336Y-81821361D01*
X76398464Y-81828597D01*
X76485415Y-81855952D01*
X76519120Y-81845694D01*
X76549406Y-81820781D01*
X76634436Y-81772395D01*
X76733358Y-81753963D01*
X76757013Y-81753370D01*
X76854958Y-81765231D01*
X76883531Y-81776329D01*
X76928960Y-81829085D01*
X76861060Y-81890146D01*
X76760045Y-81912678D01*
X76668108Y-81925317D01*
X76562588Y-81945028D01*
X76467232Y-81974865D01*
X76393579Y-82013244D01*
X76327662Y-82088578D01*
X76302551Y-82189878D01*
X76301744Y-82215478D01*
X76313899Y-82315842D01*
X76350364Y-82414337D01*
X76365247Y-82442135D01*
X76425954Y-82525061D01*
X76504880Y-82594443D01*
X76547452Y-82621898D01*
X76641402Y-82664167D01*
X76736815Y-82685776D01*
X76821493Y-82691263D01*
G37*
G36*
X75842079Y-81253161D02*
G01*
X75941065Y-81231282D01*
X75980321Y-81202358D01*
X76026162Y-81113803D01*
X76031123Y-81061186D01*
X76008011Y-80962337D01*
X75969574Y-80907801D01*
X75883287Y-80855327D01*
X75819609Y-80846741D01*
X75722102Y-80865822D01*
X75678436Y-80895589D01*
X75632595Y-80982150D01*
X75627634Y-81034319D01*
X75646336Y-81130576D01*
X75686741Y-81191123D01*
X75769782Y-81242922D01*
X75842079Y-81253161D01*
G37*
G36*
X75839148Y-82691263D02*
G01*
X75941930Y-82669414D01*
X76011023Y-82594912D01*
X76033293Y-82494628D01*
X76034054Y-82467536D01*
X76025919Y-82367278D01*
X76005998Y-82267352D01*
X75991556Y-82212547D01*
X75966247Y-82115538D01*
X75950620Y-82017478D01*
X75947103Y-81949253D01*
X75961270Y-81853510D01*
X76014026Y-81795380D01*
X76086810Y-81747020D01*
X76112212Y-81684005D01*
X76074620Y-81591890D01*
X76072156Y-81588750D01*
X75998425Y-81522713D01*
X75968108Y-81505219D01*
X75871755Y-81474078D01*
X75839148Y-81472002D01*
X75741505Y-81498350D01*
X75701884Y-81546741D01*
X75673445Y-81642946D01*
X75666713Y-81735296D01*
X75671734Y-81833003D01*
X75685015Y-81939859D01*
X75701616Y-82037709D01*
X75709211Y-82077236D01*
X75725697Y-82179330D01*
X75731193Y-82259930D01*
X75703349Y-82354207D01*
X75622392Y-82413445D01*
X75610537Y-82419665D01*
X75577320Y-82476329D01*
X75604675Y-82561814D01*
X75669939Y-82636480D01*
X75691137Y-82651695D01*
X75786493Y-82687399D01*
X75839148Y-82691263D01*
G37*
G36*
X74491187Y-80697844D02*
G01*
X74581786Y-80743182D01*
X74613415Y-80770323D01*
X74654082Y-80860907D01*
X74627704Y-80944438D01*
X74601356Y-81005040D01*
X74571108Y-81100639D01*
X74551988Y-81201870D01*
X74547684Y-81237529D01*
X74538792Y-81335226D01*
X74533073Y-81433595D01*
X74529518Y-81541856D01*
X74578794Y-81511295D01*
X74677360Y-81480256D01*
X74778646Y-81472002D01*
X74811435Y-81472994D01*
X74916765Y-81490625D01*
X75015989Y-81530296D01*
X75100069Y-81584842D01*
X75143880Y-81621763D01*
X75215047Y-81696574D01*
X75276321Y-81782127D01*
X75327704Y-81878422D01*
X75355759Y-81946618D01*
X75386959Y-82051165D01*
X75405098Y-82158416D01*
X75410258Y-82256022D01*
X75409865Y-82280734D01*
X75398367Y-82383959D01*
X75366921Y-82483335D01*
X75309630Y-82574026D01*
X75231616Y-82640773D01*
X75135941Y-82679814D01*
X75033635Y-82691263D01*
X74940279Y-82682056D01*
X74844089Y-82650661D01*
X74754710Y-82596985D01*
X74703105Y-82555291D01*
X74630084Y-82482728D01*
X74572993Y-82402568D01*
X74572946Y-82410103D01*
X74561025Y-82514431D01*
X74525122Y-82607732D01*
X74452751Y-82672909D01*
X74353175Y-82691263D01*
X74256697Y-82677144D01*
X74171946Y-82617501D01*
X74140242Y-82566790D01*
X74116259Y-82469979D01*
X74173900Y-82394752D01*
X74213313Y-82382361D01*
X74290160Y-82320502D01*
X74317043Y-82267312D01*
X74331681Y-82169560D01*
X74328962Y-82119786D01*
X74317297Y-82016711D01*
X74304178Y-81922386D01*
X74547592Y-81922386D01*
X74572810Y-81992664D01*
X74612438Y-82087422D01*
X74662875Y-82180307D01*
X74722530Y-82254474D01*
X74798185Y-82318548D01*
X74849452Y-82347194D01*
X74946685Y-82368862D01*
X75015670Y-82357092D01*
X75099092Y-82297543D01*
X75147118Y-82209116D01*
X75160642Y-82110942D01*
X75157602Y-82060984D01*
X75130160Y-81964409D01*
X75074180Y-81883796D01*
X75033544Y-81848964D01*
X74944311Y-81806974D01*
X74846057Y-81794403D01*
X74814963Y-81795528D01*
X74715968Y-81815525D01*
X74624129Y-81860519D01*
X74547592Y-81922386D01*
X74304178Y-81922386D01*
X74303838Y-81919944D01*
X74295470Y-81853087D01*
X74283472Y-81753756D01*
X74272017Y-81653250D01*
X74261828Y-81555533D01*
X74259296Y-81527936D01*
X74252656Y-81430239D01*
X74248782Y-81323764D01*
X74247662Y-81220432D01*
X74248568Y-81142544D01*
X74253789Y-81030475D01*
X74265209Y-80922862D01*
X74284787Y-80826224D01*
X74289733Y-80809780D01*
X74341451Y-80724375D01*
X74437194Y-80690425D01*
X74491187Y-80697844D01*
G37*
G36*
X73351765Y-81472882D02*
G01*
X73459156Y-81488529D01*
X73561490Y-81523735D01*
X73649267Y-81572142D01*
X73695191Y-81605000D01*
X73770041Y-81672800D01*
X73834845Y-81751729D01*
X73889602Y-81841786D01*
X73919649Y-81906381D01*
X73953064Y-82007136D01*
X73972492Y-82112529D01*
X73978018Y-82210104D01*
X73973690Y-82291448D01*
X73954456Y-82389115D01*
X73914425Y-82484247D01*
X73854919Y-82563768D01*
X73805191Y-82607096D01*
X73717912Y-82655280D01*
X73615409Y-82683294D01*
X73511514Y-82691263D01*
X73446690Y-82688446D01*
X73338649Y-82669963D01*
X73237479Y-82634230D01*
X73143182Y-82581246D01*
X73055757Y-82511011D01*
X72983646Y-82432836D01*
X72944382Y-82340041D01*
X72967341Y-82283866D01*
X73024494Y-82261395D01*
X73107536Y-82300474D01*
X73159511Y-82337968D01*
X73249685Y-82380586D01*
X73311280Y-82398446D01*
X73410886Y-82409895D01*
X73434470Y-82409221D01*
X73533633Y-82388250D01*
X73619958Y-82333203D01*
X73678240Y-82257332D01*
X73702512Y-82161744D01*
X73692794Y-82167874D01*
X73599930Y-82201800D01*
X73542823Y-82214302D01*
X73444591Y-82222316D01*
X73385329Y-82219581D01*
X73288415Y-82202168D01*
X73190090Y-82165163D01*
X73154611Y-82146173D01*
X73073191Y-82087643D01*
X73003000Y-82009825D01*
X72986628Y-81985111D01*
X72946517Y-81894042D01*
X72941729Y-81858883D01*
X73250174Y-81858883D01*
X73252355Y-81881111D01*
X73312212Y-81961953D01*
X73372612Y-81990337D01*
X73469504Y-82003475D01*
X73491852Y-82002977D01*
X73588695Y-81989309D01*
X73675157Y-81956092D01*
X73641804Y-81883323D01*
X73575017Y-81809546D01*
X73501608Y-81769224D01*
X73402581Y-81753370D01*
X73384683Y-81753813D01*
X73289741Y-81781702D01*
X73250174Y-81858883D01*
X72941729Y-81858883D01*
X72933147Y-81795868D01*
X72938219Y-81734346D01*
X72974554Y-81634973D01*
X73039148Y-81560418D01*
X73119769Y-81510080D01*
X73216552Y-81480637D01*
X73318562Y-81472002D01*
X73351765Y-81472882D01*
G37*
D11*
D12*
X63302671Y-43664472D02*
X63302671Y-42164472D01*
X63302671Y-42164472D02*
X62802671Y-43235901D01*
X62802671Y-43235901D02*
X62302671Y-42164472D01*
X62302671Y-42164472D02*
X62302671Y-43664472D01*
X61302670Y-42164472D02*
X61159813Y-42164472D01*
X61159813Y-42164472D02*
X61016956Y-42235901D01*
X61016956Y-42235901D02*
X60945528Y-42307329D01*
X60945528Y-42307329D02*
X60874099Y-42450186D01*
X60874099Y-42450186D02*
X60802670Y-42735901D01*
X60802670Y-42735901D02*
X60802670Y-43093044D01*
X60802670Y-43093044D02*
X60874099Y-43378758D01*
X60874099Y-43378758D02*
X60945528Y-43521615D01*
X60945528Y-43521615D02*
X61016956Y-43593044D01*
X61016956Y-43593044D02*
X61159813Y-43664472D01*
X61159813Y-43664472D02*
X61302670Y-43664472D01*
X61302670Y-43664472D02*
X61445528Y-43593044D01*
X61445528Y-43593044D02*
X61516956Y-43521615D01*
X61516956Y-43521615D02*
X61588385Y-43378758D01*
X61588385Y-43378758D02*
X61659813Y-43093044D01*
X61659813Y-43093044D02*
X61659813Y-42735901D01*
X61659813Y-42735901D02*
X61588385Y-42450186D01*
X61588385Y-42450186D02*
X61516956Y-42307329D01*
X61516956Y-42307329D02*
X61445528Y-42235901D01*
X61445528Y-42235901D02*
X61302670Y-42164472D01*
D11*
D12*
X63029146Y-65593270D02*
X63029146Y-64093270D01*
X63029146Y-64093270D02*
X62529146Y-65164699D01*
X62529146Y-65164699D02*
X62029146Y-64093270D01*
X62029146Y-64093270D02*
X62029146Y-65593270D01*
X61386288Y-64236127D02*
X61314860Y-64164699D01*
X61314860Y-64164699D02*
X61172003Y-64093270D01*
X61172003Y-64093270D02*
X60814860Y-64093270D01*
X60814860Y-64093270D02*
X60672003Y-64164699D01*
X60672003Y-64164699D02*
X60600574Y-64236127D01*
X60600574Y-64236127D02*
X60529145Y-64378984D01*
X60529145Y-64378984D02*
X60529145Y-64521842D01*
X60529145Y-64521842D02*
X60600574Y-64736127D01*
X60600574Y-64736127D02*
X61457717Y-65593270D01*
X61457717Y-65593270D02*
X60529145Y-65593270D01*
D15*
D16*
X117039004Y-23296928D02*
X117539004Y-22582642D01*
X117896147Y-23296928D02*
X117896147Y-21796928D01*
X117896147Y-21796928D02*
X117324718Y-21796928D01*
X117324718Y-21796928D02*
X117181861Y-21868357D01*
X117181861Y-21868357D02*
X117110432Y-21939785D01*
X117110432Y-21939785D02*
X117039004Y-22082642D01*
X117039004Y-22082642D02*
X117039004Y-22296928D01*
X117039004Y-22296928D02*
X117110432Y-22439785D01*
X117110432Y-22439785D02*
X117181861Y-22511214D01*
X117181861Y-22511214D02*
X117324718Y-22582642D01*
X117324718Y-22582642D02*
X117896147Y-22582642D01*
X115824718Y-23225500D02*
X115967575Y-23296928D01*
X115967575Y-23296928D02*
X116253290Y-23296928D01*
X116253290Y-23296928D02*
X116396147Y-23225500D01*
X116396147Y-23225500D02*
X116467575Y-23082642D01*
X116467575Y-23082642D02*
X116467575Y-22511214D01*
X116467575Y-22511214D02*
X116396147Y-22368357D01*
X116396147Y-22368357D02*
X116253290Y-22296928D01*
X116253290Y-22296928D02*
X115967575Y-22296928D01*
X115967575Y-22296928D02*
X115824718Y-22368357D01*
X115824718Y-22368357D02*
X115753290Y-22511214D01*
X115753290Y-22511214D02*
X115753290Y-22654071D01*
X115753290Y-22654071D02*
X116467575Y-22796928D01*
X115253290Y-22296928D02*
X114896147Y-23296928D01*
X114896147Y-23296928D02*
X114539004Y-22296928D01*
X112896147Y-21939785D02*
X112824719Y-21868357D01*
X112824719Y-21868357D02*
X112681862Y-21796928D01*
X112681862Y-21796928D02*
X112324719Y-21796928D01*
X112324719Y-21796928D02*
X112181862Y-21868357D01*
X112181862Y-21868357D02*
X112110433Y-21939785D01*
X112110433Y-21939785D02*
X112039004Y-22082642D01*
X112039004Y-22082642D02*
X112039004Y-22225500D01*
X112039004Y-22225500D02*
X112110433Y-22439785D01*
X112110433Y-22439785D02*
X112967576Y-23296928D01*
X112967576Y-23296928D02*
X112039004Y-23296928D01*
D11*
D12*
X62962397Y-68040734D02*
X62962397Y-66540734D01*
X62962397Y-66540734D02*
X62462397Y-67612163D01*
X62462397Y-67612163D02*
X61962397Y-66540734D01*
X61962397Y-66540734D02*
X61962397Y-68040734D01*
X60462396Y-68040734D02*
X61319539Y-68040734D01*
X60890968Y-68040734D02*
X60890968Y-66540734D01*
X60890968Y-66540734D02*
X61033825Y-66755020D01*
X61033825Y-66755020D02*
X61176682Y-66897877D01*
X61176682Y-66897877D02*
X61319539Y-66969306D01*
D13*
D14*
X92043961Y-40382204D02*
X92139200Y-40286966D01*
X92139200Y-40286966D02*
X92234438Y-40001252D01*
X92234438Y-40001252D02*
X92234438Y-39810776D01*
X92234438Y-39810776D02*
X92139200Y-39525061D01*
X92139200Y-39525061D02*
X91948723Y-39334585D01*
X91948723Y-39334585D02*
X91758247Y-39239347D01*
X91758247Y-39239347D02*
X91377295Y-39144109D01*
X91377295Y-39144109D02*
X91091580Y-39144109D01*
X91091580Y-39144109D02*
X90710628Y-39239347D01*
X90710628Y-39239347D02*
X90520152Y-39334585D01*
X90520152Y-39334585D02*
X90329676Y-39525061D01*
X90329676Y-39525061D02*
X90234438Y-39810776D01*
X90234438Y-39810776D02*
X90234438Y-40001252D01*
X90234438Y-40001252D02*
X90329676Y-40286966D01*
X90329676Y-40286966D02*
X90424914Y-40382204D01*
X92234438Y-41525061D02*
X92139200Y-41334585D01*
X92139200Y-41334585D02*
X92043961Y-41239347D01*
X92043961Y-41239347D02*
X91853485Y-41144109D01*
X91853485Y-41144109D02*
X91282057Y-41144109D01*
X91282057Y-41144109D02*
X91091580Y-41239347D01*
X91091580Y-41239347D02*
X90996342Y-41334585D01*
X90996342Y-41334585D02*
X90901104Y-41525061D01*
X90901104Y-41525061D02*
X90901104Y-41810776D01*
X90901104Y-41810776D02*
X90996342Y-42001252D01*
X90996342Y-42001252D02*
X91091580Y-42096490D01*
X91091580Y-42096490D02*
X91282057Y-42191728D01*
X91282057Y-42191728D02*
X91853485Y-42191728D01*
X91853485Y-42191728D02*
X92043961Y-42096490D01*
X92043961Y-42096490D02*
X92139200Y-42001252D01*
X92139200Y-42001252D02*
X92234438Y-41810776D01*
X92234438Y-41810776D02*
X92234438Y-41525061D01*
X92234438Y-43048871D02*
X90901104Y-43048871D01*
X90234438Y-43048871D02*
X90329676Y-42953633D01*
X90329676Y-42953633D02*
X90424914Y-43048871D01*
X90424914Y-43048871D02*
X90329676Y-43144109D01*
X90329676Y-43144109D02*
X90234438Y-43048871D01*
X90234438Y-43048871D02*
X90424914Y-43048871D01*
X92234438Y-44286966D02*
X92139200Y-44096490D01*
X92139200Y-44096490D02*
X91948723Y-44001252D01*
X91948723Y-44001252D02*
X90234438Y-44001252D01*
X90234438Y-46382205D02*
X92234438Y-46858395D01*
X92234438Y-46858395D02*
X90805866Y-47239348D01*
X90805866Y-47239348D02*
X92234438Y-47620300D01*
X92234438Y-47620300D02*
X90234438Y-48096491D01*
X92234438Y-48858395D02*
X90901104Y-48858395D01*
X90234438Y-48858395D02*
X90329676Y-48763157D01*
X90329676Y-48763157D02*
X90424914Y-48858395D01*
X90424914Y-48858395D02*
X90329676Y-48953633D01*
X90329676Y-48953633D02*
X90234438Y-48858395D01*
X90234438Y-48858395D02*
X90424914Y-48858395D01*
X90901104Y-49810776D02*
X92234438Y-49810776D01*
X91091580Y-49810776D02*
X90996342Y-49906014D01*
X90996342Y-49906014D02*
X90901104Y-50096490D01*
X90901104Y-50096490D02*
X90901104Y-50382205D01*
X90901104Y-50382205D02*
X90996342Y-50572681D01*
X90996342Y-50572681D02*
X91186819Y-50667919D01*
X91186819Y-50667919D02*
X92234438Y-50667919D01*
X92234438Y-52477443D02*
X90234438Y-52477443D01*
X92139200Y-52477443D02*
X92234438Y-52286967D01*
X92234438Y-52286967D02*
X92234438Y-51906014D01*
X92234438Y-51906014D02*
X92139200Y-51715538D01*
X92139200Y-51715538D02*
X92043961Y-51620300D01*
X92043961Y-51620300D02*
X91853485Y-51525062D01*
X91853485Y-51525062D02*
X91282057Y-51525062D01*
X91282057Y-51525062D02*
X91091580Y-51620300D01*
X91091580Y-51620300D02*
X90996342Y-51715538D01*
X90996342Y-51715538D02*
X90901104Y-51906014D01*
X90901104Y-51906014D02*
X90901104Y-52286967D01*
X90901104Y-52286967D02*
X90996342Y-52477443D01*
X92139200Y-54191729D02*
X92234438Y-54001253D01*
X92234438Y-54001253D02*
X92234438Y-53620300D01*
X92234438Y-53620300D02*
X92139200Y-53429824D01*
X92139200Y-53429824D02*
X91948723Y-53334586D01*
X91948723Y-53334586D02*
X91186819Y-53334586D01*
X91186819Y-53334586D02*
X90996342Y-53429824D01*
X90996342Y-53429824D02*
X90901104Y-53620300D01*
X90901104Y-53620300D02*
X90901104Y-54001253D01*
X90901104Y-54001253D02*
X90996342Y-54191729D01*
X90996342Y-54191729D02*
X91186819Y-54286967D01*
X91186819Y-54286967D02*
X91377295Y-54286967D01*
X91377295Y-54286967D02*
X91567771Y-53334586D01*
X92234438Y-55144110D02*
X90901104Y-55144110D01*
X91282057Y-55144110D02*
X91091580Y-55239348D01*
X91091580Y-55239348D02*
X90996342Y-55334586D01*
X90996342Y-55334586D02*
X90901104Y-55525062D01*
X90901104Y-55525062D02*
X90901104Y-55715539D01*
X92043961Y-59048872D02*
X92139200Y-58953634D01*
X92139200Y-58953634D02*
X92234438Y-58667920D01*
X92234438Y-58667920D02*
X92234438Y-58477444D01*
X92234438Y-58477444D02*
X92139200Y-58191729D01*
X92139200Y-58191729D02*
X91948723Y-58001253D01*
X91948723Y-58001253D02*
X91758247Y-57906015D01*
X91758247Y-57906015D02*
X91377295Y-57810777D01*
X91377295Y-57810777D02*
X91091580Y-57810777D01*
X91091580Y-57810777D02*
X90710628Y-57906015D01*
X90710628Y-57906015D02*
X90520152Y-58001253D01*
X90520152Y-58001253D02*
X90329676Y-58191729D01*
X90329676Y-58191729D02*
X90234438Y-58477444D01*
X90234438Y-58477444D02*
X90234438Y-58667920D01*
X90234438Y-58667920D02*
X90329676Y-58953634D01*
X90329676Y-58953634D02*
X90424914Y-59048872D01*
X92234438Y-60191729D02*
X92139200Y-60001253D01*
X92139200Y-60001253D02*
X92043961Y-59906015D01*
X92043961Y-59906015D02*
X91853485Y-59810777D01*
X91853485Y-59810777D02*
X91282057Y-59810777D01*
X91282057Y-59810777D02*
X91091580Y-59906015D01*
X91091580Y-59906015D02*
X90996342Y-60001253D01*
X90996342Y-60001253D02*
X90901104Y-60191729D01*
X90901104Y-60191729D02*
X90901104Y-60477444D01*
X90901104Y-60477444D02*
X90996342Y-60667920D01*
X90996342Y-60667920D02*
X91091580Y-60763158D01*
X91091580Y-60763158D02*
X91282057Y-60858396D01*
X91282057Y-60858396D02*
X91853485Y-60858396D01*
X91853485Y-60858396D02*
X92043961Y-60763158D01*
X92043961Y-60763158D02*
X92139200Y-60667920D01*
X92139200Y-60667920D02*
X92234438Y-60477444D01*
X92234438Y-60477444D02*
X92234438Y-60191729D01*
X90901104Y-61715539D02*
X92234438Y-61715539D01*
X91091580Y-61715539D02*
X90996342Y-61810777D01*
X90996342Y-61810777D02*
X90901104Y-62001253D01*
X90901104Y-62001253D02*
X90901104Y-62286968D01*
X90901104Y-62286968D02*
X90996342Y-62477444D01*
X90996342Y-62477444D02*
X91186819Y-62572682D01*
X91186819Y-62572682D02*
X92234438Y-62572682D01*
X90901104Y-63239349D02*
X90901104Y-64001253D01*
X90234438Y-63525063D02*
X91948723Y-63525063D01*
X91948723Y-63525063D02*
X92139200Y-63620301D01*
X92139200Y-63620301D02*
X92234438Y-63810777D01*
X92234438Y-63810777D02*
X92234438Y-64001253D01*
X92234438Y-64667920D02*
X90901104Y-64667920D01*
X91282057Y-64667920D02*
X91091580Y-64763158D01*
X91091580Y-64763158D02*
X90996342Y-64858396D01*
X90996342Y-64858396D02*
X90901104Y-65048872D01*
X90901104Y-65048872D02*
X90901104Y-65239349D01*
X92234438Y-66191729D02*
X92139200Y-66001253D01*
X92139200Y-66001253D02*
X92043961Y-65906015D01*
X92043961Y-65906015D02*
X91853485Y-65810777D01*
X91853485Y-65810777D02*
X91282057Y-65810777D01*
X91282057Y-65810777D02*
X91091580Y-65906015D01*
X91091580Y-65906015D02*
X90996342Y-66001253D01*
X90996342Y-66001253D02*
X90901104Y-66191729D01*
X90901104Y-66191729D02*
X90901104Y-66477444D01*
X90901104Y-66477444D02*
X90996342Y-66667920D01*
X90996342Y-66667920D02*
X91091580Y-66763158D01*
X91091580Y-66763158D02*
X91282057Y-66858396D01*
X91282057Y-66858396D02*
X91853485Y-66858396D01*
X91853485Y-66858396D02*
X92043961Y-66763158D01*
X92043961Y-66763158D02*
X92139200Y-66667920D01*
X92139200Y-66667920D02*
X92234438Y-66477444D01*
X92234438Y-66477444D02*
X92234438Y-66191729D01*
X92234438Y-68001253D02*
X92139200Y-67810777D01*
X92139200Y-67810777D02*
X91948723Y-67715539D01*
X91948723Y-67715539D02*
X90234438Y-67715539D01*
X92234438Y-69048872D02*
X92139200Y-68858396D01*
X92139200Y-68858396D02*
X91948723Y-68763158D01*
X91948723Y-68763158D02*
X90234438Y-68763158D01*
X92139200Y-70572682D02*
X92234438Y-70382206D01*
X92234438Y-70382206D02*
X92234438Y-70001253D01*
X92234438Y-70001253D02*
X92139200Y-69810777D01*
X92139200Y-69810777D02*
X91948723Y-69715539D01*
X91948723Y-69715539D02*
X91186819Y-69715539D01*
X91186819Y-69715539D02*
X90996342Y-69810777D01*
X90996342Y-69810777D02*
X90901104Y-70001253D01*
X90901104Y-70001253D02*
X90901104Y-70382206D01*
X90901104Y-70382206D02*
X90996342Y-70572682D01*
X90996342Y-70572682D02*
X91186819Y-70667920D01*
X91186819Y-70667920D02*
X91377295Y-70667920D01*
X91377295Y-70667920D02*
X91567771Y-69715539D01*
X92234438Y-71525063D02*
X90901104Y-71525063D01*
X91282057Y-71525063D02*
X91091580Y-71620301D01*
X91091580Y-71620301D02*
X90996342Y-71715539D01*
X90996342Y-71715539D02*
X90901104Y-71906015D01*
X90901104Y-71906015D02*
X90901104Y-72096492D01*
D17*
%TO.P,C5,1*%
%TO.N,+5V*%
X111500000Y-42810000D03*
%TO.P,C5,2*%
%TO.N,GNDPWR*%
X111500000Y-45310000D03*
%TD*%
%TO.P,R1,1*%
%TO.N,+5V*%
X65223144Y-25000000D03*
D18*
%TO.P,R1,2*%
%TO.N,Net-(D2-A)*%
X57603144Y-25000000D03*
%TD*%
D19*
%TO.P,J5,1,Pin_1*%
%TO.N,Net-(A3-B2)*%
X48603144Y-72576856D03*
D20*
%TO.P,J5,2,Pin_2*%
%TO.N,Net-(A3-B1)*%
X48603144Y-70036856D03*
%TO.P,J5,3,Pin_3*%
%TO.N,Net-(A3-A1)*%
X48603144Y-67496856D03*
%TO.P,J5,4,Pin_4*%
%TO.N,Net-(A3-A2)*%
X48603144Y-64956856D03*
%TD*%
D21*
%TO.P,J7,1,Pin_1*%
%TO.N,/Gantry limit -*%
X110540000Y-57500000D03*
D22*
%TO.P,J7,2,Pin_2*%
%TO.N,GNDPWR*%
X108000000Y-57500000D03*
%TD*%
D23*
%TO.P,U1,1,VI*%
%TO.N,+24V*%
X115055000Y-38730000D03*
D24*
%TO.P,U1,2,GND*%
%TO.N,GNDPWR*%
X115055000Y-41270000D03*
%TO.P,U1,3,VO*%
%TO.N,+5V*%
X115055000Y-43810000D03*
%TD*%
D17*
%TO.P,R4,1*%
%TO.N,+5V*%
X64500000Y-54500000D03*
D18*
%TO.P,R4,2*%
%TO.N,/e stop*%
X72120000Y-54500000D03*
%TD*%
D25*
%TO.P,J3,1,Pin_1*%
%TO.N,GNDPWR*%
X115500000Y-32230000D03*
D26*
%TO.P,J3,2,Pin_2*%
%TO.N,Net-(J3-Pin_2)*%
X115500000Y-27230000D03*
%TD*%
D27*
%TO.P,J8,1,Pin_1*%
%TO.N,/Tension switch*%
X104460000Y-65000000D03*
D22*
%TO.P,J8,2,Pin_2*%
%TO.N,GNDPWR*%
X107000000Y-65000000D03*
%TD*%
D19*
%TO.P,J4,1,Pin_1*%
%TO.N,Net-(A2-B2)*%
X48103144Y-46200000D03*
D20*
%TO.P,J4,2,Pin_2*%
%TO.N,Net-(A2-B1)*%
X48103144Y-43660000D03*
%TO.P,J4,3,Pin_3*%
%TO.N,Net-(A2-A1)*%
X48103144Y-41120000D03*
%TO.P,J4,4,Pin_4*%
%TO.N,Net-(A2-A2)*%
X48103144Y-38580000D03*
%TD*%
D28*
%TO.P,D2,1,K*%
%TO.N,Net-(A2-~{FLT})*%
X49603144Y-33696856D03*
D29*
%TO.P,D2,2,A*%
%TO.N,Net-(D2-A)*%
X47063144Y-33696856D03*
%TD*%
D30*
%TO.P,A1,1,TX1*%
%TO.N,/dir 1*%
X82180000Y-38120000D03*
D18*
%TO.P,A1,2,RX1*%
%TO.N,/dir 2*%
X82180000Y-40660000D03*
%TO.P,A1,3,~{RESET}*%
%TO.N,unconnected-(A1-~{RESET}-Pad3)*%
X82180000Y-43200000D03*
%TO.P,A1,4,GND*%
%TO.N,GNDPWR*%
X82180000Y-45740000D03*
%TO.P,A1,5,D2*%
%TO.N,/e stop*%
X82180000Y-48280000D03*
%TO.P,A1,6,D3*%
%TO.N,Net-(A1-D3)*%
X82180000Y-50820000D03*
%TO.P,A1,7,D4*%
%TO.N,Net-(A1-D4)*%
X82180000Y-53360000D03*
%TO.P,A1,8,D5*%
%TO.N,Net-(A1-D5)*%
X82180000Y-55900000D03*
%TO.P,A1,9,D6*%
%TO.N,Net-(A1-D6)*%
X82180000Y-58440000D03*
%TO.P,A1,10,D7*%
%TO.N,Net-(A1-D7)*%
X82180000Y-60980000D03*
%TO.P,A1,11,D8*%
%TO.N,Net-(A1-D8)*%
X82180000Y-63520000D03*
%TO.P,A1,12,D9*%
%TO.N,/step 2*%
X82180000Y-66060000D03*
%TO.P,A1,13,D10*%
%TO.N,/step 1*%
X82180000Y-68600000D03*
%TO.P,A1,14,MOSI*%
%TO.N,Net-(A1-MOSI)*%
X82180000Y-71140000D03*
%TO.P,A1,15,MISO*%
%TO.N,Net-(A1-MISO)*%
X82180000Y-73680000D03*
%TO.P,A1,16,SCK*%
%TO.N,Net-(A1-SCK)*%
X97420000Y-73680000D03*
%TO.P,A1,17,3V3*%
%TO.N,unconnected-(A1-3V3-Pad17)*%
X97420000Y-71140000D03*
%TO.P,A1,18,AREF*%
%TO.N,unconnected-(A1-AREF-Pad18)*%
X97420000Y-68600000D03*
%TO.P,A1,19,A0*%
%TO.N,/Keypad 9*%
X97420000Y-66060000D03*
%TO.P,A1,20,A1*%
%TO.N,/Tension switch*%
X97420000Y-63520000D03*
%TO.P,A1,21,A2*%
%TO.N,/Gantry limit -*%
X97420000Y-60980000D03*
%TO.P,A1,22,A3*%
%TO.N,/Gantry limit +*%
X97420000Y-58440000D03*
%TO.P,A1,23,SDA/A4*%
%TO.N,/SDA*%
X97420000Y-55900000D03*
%TO.P,A1,24,SCL/A5*%
%TO.N,/SCL*%
X97420000Y-53360000D03*
%TO.P,A1,25,A6*%
%TO.N,unconnected-(A1-A6-Pad25)*%
X97420000Y-50820000D03*
%TO.P,A1,26,A7*%
%TO.N,unconnected-(A1-A7-Pad26)*%
X97420000Y-48280000D03*
%TO.P,A1,27,+5V*%
%TO.N,+5V*%
X97420000Y-45740000D03*
%TO.P,A1,28,~{RESET}*%
%TO.N,unconnected-(A1-~{RESET}-Pad28)*%
X97420000Y-43200000D03*
%TO.P,A1,29,GND*%
%TO.N,GNDPWR*%
X97420000Y-40660000D03*
%TO.P,A1,30,VIN*%
%TO.N,unconnected-(A1-VIN-Pad30)*%
X97420000Y-38120000D03*
%TD*%
D30*
%TO.P,C2,1*%
%TO.N,+24V*%
X59500000Y-48500000D03*
D17*
%TO.P,C2,2*%
%TO.N,GNDPWR*%
X63300000Y-48500000D03*
%TD*%
%TO.P,C4,1*%
%TO.N,+24V*%
X111500000Y-38000000D03*
%TO.P,C4,2*%
%TO.N,GNDPWR*%
X111500000Y-40500000D03*
%TD*%
%TO.P,R3,1*%
%TO.N,GNDPWR*%
X117555000Y-48500000D03*
D18*
%TO.P,R3,2*%
%TO.N,Net-(D3-K)*%
X109935000Y-48500000D03*
%TD*%
D27*
%TO.P,J6,1,Pin_1*%
%TO.N,/Gantry limit +*%
X101460000Y-57500000D03*
D22*
%TO.P,J6,2,Pin_2*%
%TO.N,GNDPWR*%
X104000000Y-57500000D03*
%TD*%
D17*
%TO.P,R2,1*%
%TO.N,+5V*%
X62310000Y-54500000D03*
D18*
%TO.P,R2,2*%
%TO.N,Net-(D1-A)*%
X54690000Y-54500000D03*
%TD*%
D30*
%TO.P,A3,1,GND*%
%TO.N,GNDPWR*%
X55103144Y-57766856D03*
D18*
%TO.P,A3,2,~{FLT}*%
%TO.N,Net-(A3-~{FLT})*%
X55103144Y-60306856D03*
%TO.P,A3,3,A2*%
%TO.N,Net-(A3-A2)*%
X55103144Y-62846856D03*
%TO.P,A3,4,A1*%
%TO.N,Net-(A3-A1)*%
X55103144Y-65386856D03*
%TO.P,A3,5,B1*%
%TO.N,Net-(A3-B1)*%
X55103144Y-67926856D03*
%TO.P,A3,6,B2*%
%TO.N,Net-(A3-B2)*%
X55103144Y-70466856D03*
%TO.P,A3,7,GND*%
%TO.N,GNDPWR*%
X55103144Y-73006856D03*
%TO.P,A3,8,VMOT*%
%TO.N,+24V*%
X55103144Y-75546856D03*
%TO.P,A3,9,~{EN}*%
%TO.N,Net-(A3-~{EN})*%
X67803144Y-75546856D03*
%TO.P,A3,10,M0*%
%TO.N,Net-(A3-M0)*%
X67803144Y-73006856D03*
%TO.P,A3,11,M1*%
%TO.N,Net-(A3-M1)*%
X67803144Y-70466856D03*
%TO.P,A3,12,M2*%
%TO.N,Net-(A3-M2)*%
X67803144Y-67926856D03*
%TO.P,A3,13,~{RST}*%
%TO.N,+5V*%
X67803144Y-65386856D03*
%TO.P,A3,14,~{SLP}*%
X67803144Y-62846856D03*
%TO.P,A3,15,STEP*%
%TO.N,/step 2*%
X67803144Y-60306856D03*
%TO.P,A3,16,DIR*%
%TO.N,/dir 2*%
X67803144Y-57766856D03*
%TD*%
D30*
%TO.P,C1,1*%
%TO.N,+24V*%
X59700000Y-79000000D03*
D17*
%TO.P,C1,2*%
%TO.N,GNDPWR*%
X63500000Y-79000000D03*
%TD*%
D31*
%TO.P,J10,1,Pin_1*%
%TO.N,Net-(A1-D3)*%
X77000000Y-54920000D03*
D20*
%TO.P,J10,2,Pin_2*%
%TO.N,Net-(A1-D4)*%
X77000000Y-57460000D03*
%TO.P,J10,3,Pin_3*%
%TO.N,Net-(A1-D5)*%
X77000000Y-60000000D03*
%TO.P,J10,4,Pin_4*%
%TO.N,Net-(A1-D6)*%
X77000000Y-62540000D03*
%TO.P,J10,5,Pin_5*%
%TO.N,Net-(A1-D7)*%
X77000000Y-65080000D03*
%TO.P,J10,6,Pin_6*%
%TO.N,Net-(A1-D8)*%
X77000000Y-67620000D03*
%TO.P,J10,7,Pin_7*%
%TO.N,Net-(A1-MOSI)*%
X77000000Y-70160000D03*
%TO.P,J10,8,Pin_8*%
%TO.N,Net-(A1-MISO)*%
X77000000Y-72700000D03*
%TO.P,J10,9,Pin_9*%
%TO.N,/Keypad 9*%
X77000000Y-75240000D03*
%TD*%
D31*
%TO.P,J2,1,Pin_1*%
%TO.N,/SCL*%
X116500000Y-55380000D03*
D20*
%TO.P,J2,2,Pin_2*%
%TO.N,/SDA*%
X116500000Y-57920000D03*
%TO.P,J2,3,Pin_3*%
%TO.N,+5V*%
X116500000Y-60460000D03*
%TO.P,J2,4,Pin_4*%
%TO.N,GNDPWR*%
X116500000Y-63000000D03*
%TD*%
D30*
%TO.P,A2,1,GND*%
%TO.N,GNDPWR*%
X55103144Y-27920000D03*
D18*
%TO.P,A2,2,~{FLT}*%
%TO.N,Net-(A2-~{FLT})*%
X55103144Y-30460000D03*
%TO.P,A2,3,A2*%
%TO.N,Net-(A2-A2)*%
X55103144Y-33000000D03*
%TO.P,A2,4,A1*%
%TO.N,Net-(A2-A1)*%
X55103144Y-35540000D03*
%TO.P,A2,5,B1*%
%TO.N,Net-(A2-B1)*%
X55103144Y-38080000D03*
%TO.P,A2,6,B2*%
%TO.N,Net-(A2-B2)*%
X55103144Y-40620000D03*
%TO.P,A2,7,GND*%
%TO.N,GNDPWR*%
X55103144Y-43160000D03*
%TO.P,A2,8,VMOT*%
%TO.N,+24V*%
X55103144Y-45700000D03*
%TO.P,A2,9,~{EN}*%
%TO.N,Net-(A2-~{EN})*%
X67803144Y-45700000D03*
%TO.P,A2,10,M0*%
%TO.N,Net-(A2-M0)*%
X67803144Y-43160000D03*
%TO.P,A2,11,M1*%
%TO.N,Net-(A2-M1)*%
X67803144Y-40620000D03*
%TO.P,A2,12,M2*%
%TO.N,Net-(A2-M2)*%
X67803144Y-38080000D03*
%TO.P,A2,13,~{RST}*%
%TO.N,+5V*%
X67803144Y-35540000D03*
%TO.P,A2,14,~{SLP}*%
X67803144Y-33000000D03*
%TO.P,A2,15,STEP*%
%TO.N,/step 1*%
X67803144Y-30460000D03*
%TO.P,A2,16,DIR*%
%TO.N,/dir 1*%
X67803144Y-27920000D03*
%TD*%
D32*
%TO.P,BZ1,1,+*%
%TO.N,Net-(A1-SCK)*%
X109900000Y-74000000D03*
D33*
%TO.P,BZ1,2,-*%
%TO.N,GNDPWR*%
X117500000Y-74000000D03*
%TD*%
D30*
%TO.P,C3,1*%
%TO.N,+24V*%
X105500000Y-34200000D03*
D17*
%TO.P,C3,2*%
%TO.N,GNDPWR*%
X105500000Y-38000000D03*
%TD*%
D30*
%TO.P,D5,1,K*%
%TO.N,Net-(A3-~{EN})*%
X68303144Y-78536856D03*
D18*
%TO.P,D5,2,A*%
%TO.N,/e stop*%
X75923144Y-78536856D03*
%TD*%
D19*
%TO.P,J9,1,Pin_1*%
%TO.N,/e stop*%
X77020000Y-48040000D03*
D20*
%TO.P,J9,2,Pin_2*%
%TO.N,GNDPWR*%
X77020000Y-45500000D03*
%TD*%
D28*
%TO.P,D1,1,K*%
%TO.N,Net-(A3-~{FLT})*%
X47563144Y-57196856D03*
D29*
%TO.P,D1,2,A*%
%TO.N,Net-(D1-A)*%
X50103144Y-57196856D03*
%TD*%
D28*
%TO.P,D3,1,K*%
%TO.N,Net-(D3-K)*%
X104500000Y-46040000D03*
D29*
%TO.P,D3,2,A*%
%TO.N,+24V*%
X104500000Y-43500000D03*
%TD*%
D34*
%TO.P,F1,1*%
%TO.N,Net-(J3-Pin_2)*%
X99200000Y-29230000D03*
D35*
%TO.P,F1,2*%
%TO.N,+24V*%
X76340000Y-29230000D03*
%TD*%
D30*
%TO.P,D4,1,K*%
%TO.N,Net-(A2-~{EN})*%
X66380000Y-51536856D03*
D18*
%TO.P,D4,2,A*%
%TO.N,/e stop*%
X74000000Y-51536856D03*
%TD*%
D36*
%TO.P,JP1,1,A*%
%TO.N,+5V*%
X64458949Y-42967906D03*
D37*
%TO.P,JP1,2,B*%
%TO.N,Net-(A2-M0)*%
X65758949Y-42967906D03*
%TD*%
D36*
%TO.P,JP3,1,A*%
%TO.N,+5V*%
X64503144Y-38000000D03*
D37*
%TO.P,JP3,2,B*%
%TO.N,Net-(A2-M2)*%
X65803144Y-38000000D03*
%TD*%
D36*
%TO.P,JP2,1,A*%
%TO.N,+5V*%
X64458949Y-40504762D03*
D37*
%TO.P,JP2,2,B*%
%TO.N,Net-(A2-M1)*%
X65758949Y-40504762D03*
%TD*%
D36*
%TO.P,JP4,1,A*%
%TO.N,+5V*%
X64503144Y-73036856D03*
D37*
%TO.P,JP4,2,B*%
%TO.N,Net-(A3-M0)*%
X65803144Y-73036856D03*
%TD*%
D36*
%TO.P,JP5,1,A*%
%TO.N,+5V*%
X64503144Y-70536856D03*
D37*
%TO.P,JP5,2,B*%
%TO.N,Net-(A3-M1)*%
X65803144Y-70536856D03*
%TD*%
D36*
%TO.P,JP6,1,A*%
%TO.N,+5V*%
X64503144Y-68036856D03*
D37*
%TO.P,JP6,2,B*%
%TO.N,Net-(A3-M2)*%
X65803144Y-68036856D03*
%TD*%
D38*
%TO.N,+24V*%
X82000000Y-23000000D03*
X82000000Y-29230000D03*
%TO.N,/dir 1*%
X80000000Y-38000000D03*
X80000000Y-33000000D03*
%TD*%
D39*
%TO.N,Net-(J3-Pin_2)*%
X114730000Y-28000000D02*
X100430000Y-28000000D01*
X115500000Y-27230000D02*
X114730000Y-28000000D01*
X100430000Y-28000000D02*
X99200000Y-29230000D01*
%TO.N,GNDPWR*%
X74000000Y-26000000D02*
X70500000Y-22500000D01*
D40*
X117500000Y-64000000D02*
X116500000Y-63000000D01*
X117500000Y-74500000D02*
X117500000Y-64000000D01*
D39*
X58303144Y-58000000D02*
X58303144Y-53196856D01*
D40*
X111500000Y-40500000D02*
X114285000Y-40500000D01*
X117555000Y-48142500D02*
X117555000Y-42055000D01*
X111500000Y-40500000D02*
X111000000Y-40500000D01*
X77020000Y-45500000D02*
X81940000Y-45500000D01*
D39*
X63303144Y-48196856D02*
X63440493Y-48196856D01*
X60603144Y-72569507D02*
X63500000Y-75466363D01*
D40*
X72203144Y-79936856D02*
X95903144Y-79936856D01*
D39*
X58303144Y-53196856D02*
X63303144Y-48196856D01*
D40*
X111000000Y-40500000D02*
X109500000Y-42000000D01*
X115500000Y-32230000D02*
X115500000Y-34500000D01*
X115500000Y-34500000D02*
X118000000Y-37000000D01*
X116500000Y-63000000D02*
X117500000Y-63000000D01*
D39*
X60603144Y-72569507D02*
X58303144Y-70269507D01*
D40*
X109500000Y-42000000D02*
X109500000Y-44000000D01*
X72000000Y-57000000D02*
X72000000Y-79733712D01*
D39*
X111270000Y-32230000D02*
X115500000Y-32230000D01*
D40*
X109500000Y-44000000D02*
X110810000Y-45310000D01*
X74500001Y-45500000D02*
X72500000Y-47500001D01*
X113500000Y-61500000D02*
X113500000Y-57250000D01*
X118000000Y-40030000D02*
X116765000Y-41265000D01*
X100340000Y-75500000D02*
X105750000Y-75500000D01*
D41*
X55103144Y-73006856D02*
X60165795Y-73006856D01*
D39*
X91000000Y-26000000D02*
X74000000Y-26000000D01*
X63500000Y-75466363D02*
X63500000Y-79000000D01*
D40*
X77020000Y-45500000D02*
X74500001Y-45500000D01*
D39*
X61603144Y-46359507D02*
X63440493Y-48196856D01*
X105500000Y-38000000D02*
X111270000Y-32230000D01*
D40*
X104000000Y-57500000D02*
X108000000Y-57500000D01*
D39*
X58303144Y-70269507D02*
X58303144Y-58000000D01*
D40*
X114285000Y-40500000D02*
X115055000Y-41270000D01*
D41*
X58403637Y-43160000D02*
X55103144Y-43160000D01*
D40*
X70000000Y-54122642D02*
X70000000Y-55000000D01*
D41*
X58303144Y-58000000D02*
X55336288Y-58000000D01*
D40*
X81940000Y-45500000D02*
X82180000Y-45740000D01*
X109055000Y-55000000D02*
X108000000Y-56055000D01*
X72000000Y-79733712D02*
X72203144Y-79936856D01*
X114500000Y-77000000D02*
X117500000Y-74000000D01*
X82180000Y-45740000D02*
X82180000Y-45820000D01*
X113500000Y-57250000D02*
X111250000Y-55000000D01*
X119600000Y-50187500D02*
X117555000Y-48142500D01*
D41*
X55336288Y-58000000D02*
X55103144Y-57766856D01*
D39*
X58803144Y-33996856D02*
X58803144Y-43559507D01*
D40*
X110810000Y-45310000D02*
X111500000Y-45310000D01*
X119600000Y-60900000D02*
X119600000Y-50187500D01*
D39*
X58803144Y-43559507D02*
X61603144Y-46359507D01*
D40*
X55103144Y-27920000D02*
X60863144Y-27920000D01*
D41*
X115500000Y-32230000D02*
X116770000Y-32230000D01*
D40*
X107250000Y-77000000D02*
X114500000Y-77000000D01*
X72500000Y-47500001D02*
X72500000Y-51622642D01*
X109000000Y-63000000D02*
X116500000Y-63000000D01*
X72500000Y-51622642D02*
X70000000Y-54122642D01*
X111250000Y-55000000D02*
X109055000Y-55000000D01*
X105750000Y-75500000D02*
X107250000Y-77000000D01*
X116500000Y-63000000D02*
X115000000Y-63000000D01*
X117555000Y-42055000D02*
X116765000Y-41265000D01*
D39*
X61603144Y-31196856D02*
X58803144Y-33996856D01*
X70500000Y-22500000D02*
X62500000Y-22500000D01*
D40*
X116760000Y-41270000D02*
X115055000Y-41270000D01*
D39*
X115500000Y-32230000D02*
X115076520Y-31806520D01*
D40*
X107000000Y-65000000D02*
X109000000Y-63000000D01*
X70000000Y-55000000D02*
X72000000Y-57000000D01*
D41*
X60165795Y-73006856D02*
X60603144Y-72569507D01*
D40*
X115000000Y-63000000D02*
X113500000Y-61500000D01*
X117500000Y-63000000D02*
X119600000Y-60900000D01*
X108000000Y-56055000D02*
X108000000Y-57500000D01*
X118000000Y-37000000D02*
X118000000Y-40030000D01*
X95903144Y-79936856D02*
X100340000Y-75500000D01*
D39*
X61603144Y-23396856D02*
X61603144Y-31196856D01*
X96806520Y-31806520D02*
X91000000Y-26000000D01*
X115076520Y-31806520D02*
X96806520Y-31806520D01*
X62500000Y-22500000D02*
X61603144Y-23396856D01*
D40*
X116765000Y-41265000D02*
X116760000Y-41270000D01*
D39*
%TO.N,+24V*%
X82000000Y-23000000D02*
X78786856Y-19786856D01*
X44103144Y-52196856D02*
X51143144Y-52196856D01*
X59220493Y-75546856D02*
X59700000Y-76026363D01*
X46953144Y-75546856D02*
X44103144Y-72696856D01*
D40*
X112000000Y-37500000D02*
X113825000Y-37500000D01*
D39*
X55103144Y-48236856D02*
X55103144Y-45700000D01*
D40*
X104500000Y-43500000D02*
X103000000Y-42000000D01*
D39*
X76340000Y-29230000D02*
X82000000Y-29230000D01*
X55103144Y-75546856D02*
X46953144Y-75546856D01*
D41*
X55383144Y-75266856D02*
X55103144Y-75546856D01*
D40*
X103000000Y-42000000D02*
X103000000Y-34635635D01*
D39*
X59500000Y-48500000D02*
X55366288Y-48500000D01*
X94781371Y-34400000D02*
X102764365Y-34400000D01*
X105064365Y-34635635D02*
X105500000Y-34200000D01*
X102764365Y-34400000D02*
X103000000Y-34635635D01*
X103000000Y-34635635D02*
X105064365Y-34635635D01*
X89611371Y-29230000D02*
X94781371Y-34400000D01*
D40*
X111500000Y-38000000D02*
X110000000Y-38000000D01*
D39*
X59700000Y-76026363D02*
X59700000Y-79000000D01*
D40*
X110000000Y-38000000D02*
X104500000Y-43500000D01*
D39*
X55103144Y-75546856D02*
X59220493Y-75546856D01*
X44103144Y-72696856D02*
X44103144Y-52196856D01*
X82000000Y-29230000D02*
X89611371Y-29230000D01*
D41*
X55143144Y-48196856D02*
X55103144Y-48236856D01*
D40*
X113825000Y-37500000D02*
X115055000Y-38730000D01*
X111500000Y-38000000D02*
X112000000Y-37500000D01*
D39*
X78786856Y-19786856D02*
X55013144Y-19786856D01*
D40*
X111500000Y-37580101D02*
X111500000Y-38000000D01*
D39*
X44103144Y-30696856D02*
X44103144Y-52196856D01*
X55013144Y-19786856D02*
X44103144Y-30696856D01*
X51143144Y-52196856D02*
X55103144Y-48236856D01*
D40*
%TO.N,Net-(D3-K)*%
X107975000Y-46040000D02*
X109935000Y-48000000D01*
X104500000Y-46040000D02*
X107975000Y-46040000D01*
%TO.N,Net-(D1-A)*%
X52640000Y-54500000D02*
X50103144Y-57036856D01*
X54690000Y-54500000D02*
X52640000Y-54500000D01*
%TO.N,+5V*%
X89000000Y-31500000D02*
X75000000Y-31500000D01*
X67803144Y-62846856D02*
X64813144Y-62846856D01*
X116500000Y-60460000D02*
X118500000Y-58460000D01*
X64500000Y-25723144D02*
X65223144Y-25000000D01*
X114055000Y-42810000D02*
X115055000Y-43810000D01*
X94000000Y-36500000D02*
X89000000Y-31500000D01*
X68500000Y-25000000D02*
X65223144Y-25000000D01*
X67803144Y-33000000D02*
X64458949Y-33000000D01*
X66000000Y-45463144D02*
X66000000Y-48500000D01*
X111500000Y-42810000D02*
X114055000Y-42810000D01*
X114500000Y-50000000D02*
X115250000Y-49250000D01*
X97420000Y-45740000D02*
X100740000Y-45740000D01*
X67803144Y-62846856D02*
X67803144Y-65386856D01*
X64458949Y-42967906D02*
X64458949Y-33000000D01*
X64813144Y-62846856D02*
X64503144Y-62536856D01*
X118500000Y-52500000D02*
X115250000Y-49250000D01*
X98500000Y-36500000D02*
X94000000Y-36500000D01*
X64458949Y-33000000D02*
X64500000Y-32958949D01*
X64500000Y-50000000D02*
X64500000Y-54500000D01*
X64500000Y-32958949D02*
X64500000Y-25723144D01*
X115055000Y-49055000D02*
X115055000Y-48555000D01*
X64458949Y-42967906D02*
X64458949Y-43922093D01*
X75000000Y-31500000D02*
X68500000Y-25000000D01*
X62310000Y-54500000D02*
X64500000Y-54500000D01*
X64458949Y-43922093D02*
X66000000Y-45463144D01*
X64503144Y-62536856D02*
X64503144Y-55446856D01*
X100740000Y-38740000D02*
X98500000Y-36500000D01*
X100740000Y-45740000D02*
X105000000Y-50000000D01*
X64503144Y-73036856D02*
X64503144Y-62536856D01*
X67803144Y-33000000D02*
X67803144Y-35540000D01*
X115055000Y-48555000D02*
X115055000Y-43810000D01*
X100740000Y-45740000D02*
X100740000Y-38740000D01*
X105000000Y-50000000D02*
X114500000Y-50000000D01*
X118500000Y-58460000D02*
X118500000Y-52500000D01*
X115250000Y-49250000D02*
X115055000Y-49055000D01*
X66000000Y-48500000D02*
X64500000Y-50000000D01*
%TO.N,Net-(D2-A)*%
X53490000Y-25000000D02*
X47063144Y-31426856D01*
X57603144Y-25000000D02*
X53490000Y-25000000D01*
X47063144Y-31426856D02*
X47063144Y-33696856D01*
%TO.N,Net-(A2-~{FLT})*%
X49603144Y-31896856D02*
X51040000Y-30460000D01*
X51040000Y-30460000D02*
X55103144Y-30460000D01*
X49603144Y-33696856D02*
X49603144Y-31896856D01*
%TO.N,Net-(A2-M0)*%
X67611050Y-42967906D02*
X67803144Y-43160000D01*
X65758949Y-42967906D02*
X67611050Y-42967906D01*
X68000000Y-42963144D02*
X67803144Y-43160000D01*
%TO.N,/step 1*%
X69671572Y-30500000D02*
X67843144Y-30500000D01*
X73671572Y-34500000D02*
X69671572Y-30500000D01*
X82180000Y-68600000D02*
X87000000Y-63780000D01*
X87000000Y-63780000D02*
X87000000Y-37500000D01*
X87000000Y-37500000D02*
X84000000Y-34500000D01*
X67843144Y-30500000D02*
X67803144Y-30460000D01*
X84000000Y-34500000D02*
X73671572Y-34500000D01*
D41*
%TO.N,Net-(A2-A1)*%
X55103144Y-35540000D02*
X49523144Y-41120000D01*
X49523144Y-41120000D02*
X48103144Y-41120000D01*
D40*
%TO.N,/dir 1*%
X69420000Y-27920000D02*
X74500000Y-33000000D01*
X74500000Y-33000000D02*
X80000000Y-33000000D01*
X82060000Y-38000000D02*
X82180000Y-38120000D01*
X80000000Y-38000000D02*
X82060000Y-38000000D01*
X67803144Y-27920000D02*
X69420000Y-27920000D01*
D41*
%TO.N,Net-(A2-A2)*%
X48103144Y-38580000D02*
X49523144Y-38580000D01*
D40*
X54403144Y-33696856D02*
X55103144Y-32996856D01*
D41*
X49523144Y-38580000D02*
X55103144Y-33000000D01*
D40*
%TO.N,Net-(A2-M1)*%
X67687906Y-40504762D02*
X67803144Y-40620000D01*
X67923144Y-40500000D02*
X67803144Y-40620000D01*
X65758949Y-40504762D02*
X67687906Y-40504762D01*
%TO.N,Net-(A2-M2)*%
X67887906Y-37995238D02*
X67803144Y-38080000D01*
X67723144Y-38000000D02*
X67803144Y-38080000D01*
X65803144Y-38000000D02*
X67723144Y-38000000D01*
D41*
%TO.N,Net-(A2-B2)*%
X55103144Y-40620000D02*
X49523144Y-46200000D01*
X49523144Y-46200000D02*
X48103144Y-46200000D01*
%TO.N,Net-(A2-B1)*%
X49523144Y-43660000D02*
X48103144Y-43660000D01*
X55103144Y-38080000D02*
X49523144Y-43660000D01*
D40*
%TO.N,/step 2*%
X85500000Y-38000000D02*
X83536856Y-36036856D01*
X85500000Y-63185000D02*
X85500000Y-38000000D01*
X83536856Y-36036856D02*
X74548930Y-36036856D01*
X70000000Y-51000000D02*
X66000000Y-55000000D01*
X66000000Y-58503712D02*
X67803144Y-60306856D01*
X66000000Y-55000000D02*
X66000000Y-58503712D01*
X70000000Y-40585786D02*
X70000000Y-51000000D01*
X82180000Y-66060000D02*
X82625000Y-66060000D01*
X82625000Y-66060000D02*
X85500000Y-63185000D01*
X74548930Y-36036856D02*
X70000000Y-40585786D01*
%TO.N,Net-(A3-M0)*%
X67803144Y-73006856D02*
X65833144Y-73006856D01*
X65833144Y-73006856D02*
X65803144Y-73036856D01*
D41*
%TO.N,Net-(A3-A1)*%
X48603144Y-67496856D02*
X52993144Y-67496856D01*
X52993144Y-67496856D02*
X55103144Y-65386856D01*
%TO.N,Net-(A3-B2)*%
X52993144Y-72576856D02*
X55103144Y-70466856D01*
X48603144Y-72576856D02*
X52993144Y-72576856D01*
D40*
%TO.N,/dir 2*%
X71225069Y-43114931D02*
X71225069Y-51274931D01*
X82056856Y-40536856D02*
X73803144Y-40536856D01*
X67803144Y-54696856D02*
X67803144Y-57766856D01*
X82180000Y-40660000D02*
X82056856Y-40536856D01*
X82020000Y-40500000D02*
X82180000Y-40660000D01*
X71225069Y-51274931D02*
X67803144Y-54696856D01*
X73803144Y-40536856D02*
X71225069Y-43114931D01*
D41*
%TO.N,Net-(A3-A2)*%
X52993144Y-64956856D02*
X55103144Y-62846856D01*
X48603144Y-64956856D02*
X52993144Y-64956856D01*
D40*
%TO.N,Net-(A3-M1)*%
X67803144Y-70466856D02*
X65873144Y-70466856D01*
X65873144Y-70466856D02*
X65803144Y-70536856D01*
%TO.N,Net-(A3-~{FLT})*%
X47563144Y-59156856D02*
X48713144Y-60306856D01*
X48713144Y-60306856D02*
X55103144Y-60306856D01*
X47563144Y-57196856D02*
X47563144Y-59156856D01*
%TO.N,Net-(A3-M2)*%
X67913144Y-68036856D02*
X67803144Y-67926856D01*
X67803144Y-67926856D02*
X65913144Y-67926856D01*
X65913144Y-67926856D02*
X65803144Y-68036856D01*
D41*
%TO.N,Net-(A3-B1)*%
X52993144Y-70036856D02*
X55103144Y-67926856D01*
X48603144Y-70036856D02*
X52993144Y-70036856D01*
D40*
%TO.N,/e stop*%
X73000000Y-54500000D02*
X74000000Y-53500000D01*
X74000000Y-51536856D02*
X74463144Y-51536856D01*
X75923144Y-78536856D02*
X74000000Y-76613712D01*
X73500000Y-54500000D02*
X72120000Y-54500000D01*
X74000000Y-76613712D02*
X74000000Y-55000000D01*
X77020000Y-48980000D02*
X77020000Y-48040000D01*
X77020000Y-48516856D02*
X77020000Y-48040000D01*
X74463144Y-51536856D02*
X77020000Y-48980000D01*
X74000000Y-53500000D02*
X74000000Y-51536856D01*
X82180000Y-48280000D02*
X77260000Y-48280000D01*
X77260000Y-48280000D02*
X77020000Y-48040000D01*
X77020000Y-48040000D02*
X76770000Y-48040000D01*
X72120000Y-54500000D02*
X73000000Y-54500000D01*
X74000000Y-55000000D02*
X73500000Y-54500000D01*
%TO.N,Net-(A1-MOSI)*%
X81200000Y-70160000D02*
X82180000Y-71140000D01*
X77000000Y-70160000D02*
X81200000Y-70160000D01*
%TO.N,Net-(A1-SCK)*%
X97600000Y-73500000D02*
X97420000Y-73680000D01*
X109400000Y-73500000D02*
X97600000Y-73500000D01*
X109900000Y-74000000D02*
X109400000Y-73500000D01*
%TO.N,Net-(A1-D8)*%
X77000000Y-67620000D02*
X78080000Y-67620000D01*
X78080000Y-67620000D02*
X82180000Y-63520000D01*
%TO.N,/Tension switch*%
X97440000Y-63500000D02*
X97420000Y-63520000D01*
X102960000Y-63500000D02*
X97440000Y-63500000D01*
X104460000Y-65000000D02*
X102960000Y-63500000D01*
%TO.N,Net-(A1-MISO)*%
X77000000Y-72700000D02*
X81200000Y-72700000D01*
X81200000Y-72700000D02*
X82180000Y-73680000D01*
%TO.N,/Gantry limit -*%
X110540000Y-57500000D02*
X107060000Y-60980000D01*
X107060000Y-60980000D02*
X97420000Y-60980000D01*
%TO.N,Net-(A1-D6)*%
X78080000Y-62540000D02*
X82180000Y-58440000D01*
X77000000Y-62540000D02*
X78080000Y-62540000D01*
%TO.N,/SCL*%
X112120000Y-51500000D02*
X99280000Y-51500000D01*
X112620000Y-51500000D02*
X112120000Y-51500000D01*
X99280000Y-51500000D02*
X97420000Y-53360000D01*
X116500000Y-55380000D02*
X112620000Y-51500000D01*
%TO.N,/Gantry limit +*%
X98360000Y-57500000D02*
X97420000Y-58440000D01*
X101460000Y-57500000D02*
X98360000Y-57500000D01*
%TO.N,Net-(A1-D3)*%
X82180000Y-50820000D02*
X81820000Y-50820000D01*
X77000000Y-54920000D02*
X78080000Y-54920000D01*
X78080000Y-54920000D02*
X82180000Y-50820000D01*
%TO.N,Net-(A1-D7)*%
X78080000Y-65080000D02*
X82180000Y-60980000D01*
X77000000Y-65080000D02*
X78080000Y-65080000D01*
%TO.N,/SDA*%
X116500000Y-57920000D02*
X115920000Y-57920000D01*
X100820000Y-53000000D02*
X97420000Y-56400000D01*
X111000000Y-53000000D02*
X100820000Y-53000000D01*
X115920000Y-57920000D02*
X111000000Y-53000000D01*
%TO.N,Net-(A1-D4)*%
X78080000Y-57460000D02*
X82180000Y-53360000D01*
X77000000Y-57460000D02*
X78080000Y-57460000D01*
%TO.N,Net-(A1-D5)*%
X78080000Y-60000000D02*
X82180000Y-55900000D01*
X77000000Y-60000000D02*
X78080000Y-60000000D01*
%TO.N,/Keypad 9*%
X93000000Y-76500000D02*
X95000000Y-74500000D01*
X78260000Y-76500000D02*
X93000000Y-76500000D01*
X95000000Y-74500000D02*
X95000000Y-68480000D01*
X77000000Y-75240000D02*
X78260000Y-76500000D01*
X95000000Y-68480000D02*
X97420000Y-66060000D01*
%TO.N,Net-(A2-~{EN})*%
X68000000Y-45896856D02*
X67803144Y-45700000D01*
D41*
X67763144Y-45660000D02*
X67803144Y-45700000D01*
D40*
X66380000Y-51536856D02*
X68000000Y-49916856D01*
X68000000Y-49916856D02*
X68000000Y-45896856D01*
%TO.N,Net-(A3-~{EN})*%
X67803144Y-78036856D02*
X67803144Y-75546856D01*
X68303144Y-78536856D02*
X67803144Y-78036856D01*
X67803144Y-75546856D02*
X67953144Y-75546856D01*
%TD*%
D42*
X46603145Y-80000000D02*
G75*
G02*
X43774717Y-80000000I-1414214J0D01*
G01*
X43774717Y-80000000D02*
G75*
G02*
X46603145Y-80000000I1414214J0D01*
G01*
X105868717Y-22333726D02*
G75*
G02*
X103040289Y-22333726I-1414214J0D01*
G01*
X103040289Y-22333726D02*
G75*
G02*
X105868717Y-22333726I1414214J0D01*
G01*
X41915087Y-18487449D02*
X121915087Y-18487449D01*
X121915087Y-83487449D01*
X41915087Y-83487449D01*
X41915087Y-18487449D01*
X105368717Y-80000000D02*
G75*
G02*
X102540289Y-80000000I-1414214J0D01*
G01*
X102540289Y-80000000D02*
G75*
G02*
X105368717Y-80000000I1414214J0D01*
G01*
X47103145Y-22333726D02*
G75*
G02*
X44274717Y-22333726I-1414214J0D01*
G01*
X44274717Y-22333726D02*
G75*
G02*
X47103145Y-22333726I1414214J0D01*
G01*
D43*
X77486516Y-90233389D02*
X77391278Y-90185770D01*
X77391278Y-90185770D02*
X77343659Y-90138151D01*
X77343659Y-90138151D02*
X77296040Y-90042913D01*
X77296040Y-90042913D02*
X77296040Y-89995294D01*
X77296040Y-89995294D02*
X77343659Y-89900056D01*
X77343659Y-89900056D02*
X77391278Y-89852437D01*
X77391278Y-89852437D02*
X77486516Y-89804818D01*
X77486516Y-89804818D02*
X77676992Y-89804818D01*
X77676992Y-89804818D02*
X77772230Y-89852437D01*
X77772230Y-89852437D02*
X77819849Y-89900056D01*
X77819849Y-89900056D02*
X77867468Y-89995294D01*
X77867468Y-89995294D02*
X77867468Y-90042913D01*
X77867468Y-90042913D02*
X77819849Y-90138151D01*
X77819849Y-90138151D02*
X77772230Y-90185770D01*
X77772230Y-90185770D02*
X77676992Y-90233389D01*
X77676992Y-90233389D02*
X77486516Y-90233389D01*
X77486516Y-90233389D02*
X77391278Y-90281008D01*
X77391278Y-90281008D02*
X77343659Y-90328627D01*
X77343659Y-90328627D02*
X77296040Y-90423865D01*
X77296040Y-90423865D02*
X77296040Y-90614341D01*
X77296040Y-90614341D02*
X77343659Y-90709579D01*
X77343659Y-90709579D02*
X77391278Y-90757199D01*
X77391278Y-90757199D02*
X77486516Y-90804818D01*
X77486516Y-90804818D02*
X77676992Y-90804818D01*
X77676992Y-90804818D02*
X77772230Y-90757199D01*
X77772230Y-90757199D02*
X77819849Y-90709579D01*
X77819849Y-90709579D02*
X77867468Y-90614341D01*
X77867468Y-90614341D02*
X77867468Y-90423865D01*
X77867468Y-90423865D02*
X77819849Y-90328627D01*
X77819849Y-90328627D02*
X77772230Y-90281008D01*
X77772230Y-90281008D02*
X77676992Y-90233389D01*
X78486516Y-89804818D02*
X78581754Y-89804818D01*
X78581754Y-89804818D02*
X78676992Y-89852437D01*
X78676992Y-89852437D02*
X78724611Y-89900056D01*
X78724611Y-89900056D02*
X78772230Y-89995294D01*
X78772230Y-89995294D02*
X78819849Y-90185770D01*
X78819849Y-90185770D02*
X78819849Y-90423865D01*
X78819849Y-90423865D02*
X78772230Y-90614341D01*
X78772230Y-90614341D02*
X78724611Y-90709579D01*
X78724611Y-90709579D02*
X78676992Y-90757199D01*
X78676992Y-90757199D02*
X78581754Y-90804818D01*
X78581754Y-90804818D02*
X78486516Y-90804818D01*
X78486516Y-90804818D02*
X78391278Y-90757199D01*
X78391278Y-90757199D02*
X78343659Y-90709579D01*
X78343659Y-90709579D02*
X78296040Y-90614341D01*
X78296040Y-90614341D02*
X78248421Y-90423865D01*
X78248421Y-90423865D02*
X78248421Y-90185770D01*
X78248421Y-90185770D02*
X78296040Y-89995294D01*
X78296040Y-89995294D02*
X78343659Y-89900056D01*
X78343659Y-89900056D02*
X78391278Y-89852437D01*
X78391278Y-89852437D02*
X78486516Y-89804818D01*
X79248421Y-90709579D02*
X79296040Y-90757199D01*
X79296040Y-90757199D02*
X79248421Y-90804818D01*
X79248421Y-90804818D02*
X79200802Y-90757199D01*
X79200802Y-90757199D02*
X79248421Y-90709579D01*
X79248421Y-90709579D02*
X79248421Y-90804818D01*
X79915087Y-89804818D02*
X80010325Y-89804818D01*
X80010325Y-89804818D02*
X80105563Y-89852437D01*
X80105563Y-89852437D02*
X80153182Y-89900056D01*
X80153182Y-89900056D02*
X80200801Y-89995294D01*
X80200801Y-89995294D02*
X80248420Y-90185770D01*
X80248420Y-90185770D02*
X80248420Y-90423865D01*
X80248420Y-90423865D02*
X80200801Y-90614341D01*
X80200801Y-90614341D02*
X80153182Y-90709579D01*
X80153182Y-90709579D02*
X80105563Y-90757199D01*
X80105563Y-90757199D02*
X80010325Y-90804818D01*
X80010325Y-90804818D02*
X79915087Y-90804818D01*
X79915087Y-90804818D02*
X79819849Y-90757199D01*
X79819849Y-90757199D02*
X79772230Y-90709579D01*
X79772230Y-90709579D02*
X79724611Y-90614341D01*
X79724611Y-90614341D02*
X79676992Y-90423865D01*
X79676992Y-90423865D02*
X79676992Y-90185770D01*
X79676992Y-90185770D02*
X79724611Y-89995294D01*
X79724611Y-89995294D02*
X79772230Y-89900056D01*
X79772230Y-89900056D02*
X79819849Y-89852437D01*
X79819849Y-89852437D02*
X79915087Y-89804818D01*
X80867468Y-89804818D02*
X80962706Y-89804818D01*
X80962706Y-89804818D02*
X81057944Y-89852437D01*
X81057944Y-89852437D02*
X81105563Y-89900056D01*
X81105563Y-89900056D02*
X81153182Y-89995294D01*
X81153182Y-89995294D02*
X81200801Y-90185770D01*
X81200801Y-90185770D02*
X81200801Y-90423865D01*
X81200801Y-90423865D02*
X81153182Y-90614341D01*
X81153182Y-90614341D02*
X81105563Y-90709579D01*
X81105563Y-90709579D02*
X81057944Y-90757199D01*
X81057944Y-90757199D02*
X80962706Y-90804818D01*
X80962706Y-90804818D02*
X80867468Y-90804818D01*
X80867468Y-90804818D02*
X80772230Y-90757199D01*
X80772230Y-90757199D02*
X80724611Y-90709579D01*
X80724611Y-90709579D02*
X80676992Y-90614341D01*
X80676992Y-90614341D02*
X80629373Y-90423865D01*
X80629373Y-90423865D02*
X80629373Y-90185770D01*
X80629373Y-90185770D02*
X80676992Y-89995294D01*
X80676992Y-89995294D02*
X80724611Y-89900056D01*
X80724611Y-89900056D02*
X80772230Y-89852437D01*
X80772230Y-89852437D02*
X80867468Y-89804818D01*
X81819849Y-89804818D02*
X81915087Y-89804818D01*
X81915087Y-89804818D02*
X82010325Y-89852437D01*
X82010325Y-89852437D02*
X82057944Y-89900056D01*
X82057944Y-89900056D02*
X82105563Y-89995294D01*
X82105563Y-89995294D02*
X82153182Y-90185770D01*
X82153182Y-90185770D02*
X82153182Y-90423865D01*
X82153182Y-90423865D02*
X82105563Y-90614341D01*
X82105563Y-90614341D02*
X82057944Y-90709579D01*
X82057944Y-90709579D02*
X82010325Y-90757199D01*
X82010325Y-90757199D02*
X81915087Y-90804818D01*
X81915087Y-90804818D02*
X81819849Y-90804818D01*
X81819849Y-90804818D02*
X81724611Y-90757199D01*
X81724611Y-90757199D02*
X81676992Y-90709579D01*
X81676992Y-90709579D02*
X81629373Y-90614341D01*
X81629373Y-90614341D02*
X81581754Y-90423865D01*
X81581754Y-90423865D02*
X81581754Y-90185770D01*
X81581754Y-90185770D02*
X81629373Y-89995294D01*
X81629373Y-89995294D02*
X81676992Y-89900056D01*
X81676992Y-89900056D02*
X81724611Y-89852437D01*
X81724611Y-89852437D02*
X81819849Y-89804818D01*
X82772230Y-89804818D02*
X82867468Y-89804818D01*
X82867468Y-89804818D02*
X82962706Y-89852437D01*
X82962706Y-89852437D02*
X83010325Y-89900056D01*
X83010325Y-89900056D02*
X83057944Y-89995294D01*
X83057944Y-89995294D02*
X83105563Y-90185770D01*
X83105563Y-90185770D02*
X83105563Y-90423865D01*
X83105563Y-90423865D02*
X83057944Y-90614341D01*
X83057944Y-90614341D02*
X83010325Y-90709579D01*
X83010325Y-90709579D02*
X82962706Y-90757199D01*
X82962706Y-90757199D02*
X82867468Y-90804818D01*
X82867468Y-90804818D02*
X82772230Y-90804818D01*
X82772230Y-90804818D02*
X82676992Y-90757199D01*
X82676992Y-90757199D02*
X82629373Y-90709579D01*
X82629373Y-90709579D02*
X82581754Y-90614341D01*
X82581754Y-90614341D02*
X82534135Y-90423865D01*
X82534135Y-90423865D02*
X82534135Y-90185770D01*
X82534135Y-90185770D02*
X82581754Y-89995294D01*
X82581754Y-89995294D02*
X82629373Y-89900056D01*
X82629373Y-89900056D02*
X82676992Y-89852437D01*
X82676992Y-89852437D02*
X82772230Y-89804818D01*
X84296040Y-90804818D02*
X84296040Y-90138151D01*
X84296040Y-90233389D02*
X84343659Y-90185770D01*
X84343659Y-90185770D02*
X84438897Y-90138151D01*
X84438897Y-90138151D02*
X84581754Y-90138151D01*
X84581754Y-90138151D02*
X84676992Y-90185770D01*
X84676992Y-90185770D02*
X84724611Y-90281008D01*
X84724611Y-90281008D02*
X84724611Y-90804818D01*
X84724611Y-90281008D02*
X84772230Y-90185770D01*
X84772230Y-90185770D02*
X84867468Y-90138151D01*
X84867468Y-90138151D02*
X85010325Y-90138151D01*
X85010325Y-90138151D02*
X85105564Y-90185770D01*
X85105564Y-90185770D02*
X85153183Y-90281008D01*
X85153183Y-90281008D02*
X85153183Y-90804818D01*
X85629373Y-90804818D02*
X85629373Y-90138151D01*
X85629373Y-90233389D02*
X85676992Y-90185770D01*
X85676992Y-90185770D02*
X85772230Y-90138151D01*
X85772230Y-90138151D02*
X85915087Y-90138151D01*
X85915087Y-90138151D02*
X86010325Y-90185770D01*
X86010325Y-90185770D02*
X86057944Y-90281008D01*
X86057944Y-90281008D02*
X86057944Y-90804818D01*
X86057944Y-90281008D02*
X86105563Y-90185770D01*
X86105563Y-90185770D02*
X86200801Y-90138151D01*
X86200801Y-90138151D02*
X86343658Y-90138151D01*
X86343658Y-90138151D02*
X86438897Y-90185770D01*
X86438897Y-90185770D02*
X86486516Y-90281008D01*
X86486516Y-90281008D02*
X86486516Y-90804818D01*
D42*
X41915087Y-83987449D02*
X41915087Y-92086419D01*
X121915087Y-83987449D02*
X121915087Y-92086419D01*
X41915087Y-91499999D02*
X121915087Y-91499999D01*
X41915087Y-91499999D02*
X121915087Y-91499999D01*
X41915087Y-91499999D02*
X43041591Y-90913578D01*
X41915087Y-91499999D02*
X43041591Y-92086420D01*
X121915087Y-91499999D02*
X120788583Y-92086420D01*
X121915087Y-91499999D02*
X120788583Y-90913578D01*
D43*
X132804819Y-55130305D02*
X132804819Y-55320781D01*
X132804819Y-55320781D02*
X132852438Y-55416019D01*
X132852438Y-55416019D02*
X132900057Y-55463638D01*
X132900057Y-55463638D02*
X133042914Y-55558876D01*
X133042914Y-55558876D02*
X133233390Y-55606495D01*
X133233390Y-55606495D02*
X133614342Y-55606495D01*
X133614342Y-55606495D02*
X133709580Y-55558876D01*
X133709580Y-55558876D02*
X133757200Y-55511257D01*
X133757200Y-55511257D02*
X133804819Y-55416019D01*
X133804819Y-55416019D02*
X133804819Y-55225543D01*
X133804819Y-55225543D02*
X133757200Y-55130305D01*
X133757200Y-55130305D02*
X133709580Y-55082686D01*
X133709580Y-55082686D02*
X133614342Y-55035067D01*
X133614342Y-55035067D02*
X133376247Y-55035067D01*
X133376247Y-55035067D02*
X133281009Y-55082686D01*
X133281009Y-55082686D02*
X133233390Y-55130305D01*
X133233390Y-55130305D02*
X133185771Y-55225543D01*
X133185771Y-55225543D02*
X133185771Y-55416019D01*
X133185771Y-55416019D02*
X133233390Y-55511257D01*
X133233390Y-55511257D02*
X133281009Y-55558876D01*
X133281009Y-55558876D02*
X133376247Y-55606495D01*
X132804819Y-54130305D02*
X132804819Y-54606495D01*
X132804819Y-54606495D02*
X133281009Y-54654114D01*
X133281009Y-54654114D02*
X133233390Y-54606495D01*
X133233390Y-54606495D02*
X133185771Y-54511257D01*
X133185771Y-54511257D02*
X133185771Y-54273162D01*
X133185771Y-54273162D02*
X133233390Y-54177924D01*
X133233390Y-54177924D02*
X133281009Y-54130305D01*
X133281009Y-54130305D02*
X133376247Y-54082686D01*
X133376247Y-54082686D02*
X133614342Y-54082686D01*
X133614342Y-54082686D02*
X133709580Y-54130305D01*
X133709580Y-54130305D02*
X133757200Y-54177924D01*
X133757200Y-54177924D02*
X133804819Y-54273162D01*
X133804819Y-54273162D02*
X133804819Y-54511257D01*
X133804819Y-54511257D02*
X133757200Y-54606495D01*
X133757200Y-54606495D02*
X133709580Y-54654114D01*
X133709580Y-53654114D02*
X133757200Y-53606495D01*
X133757200Y-53606495D02*
X133804819Y-53654114D01*
X133804819Y-53654114D02*
X133757200Y-53701733D01*
X133757200Y-53701733D02*
X133709580Y-53654114D01*
X133709580Y-53654114D02*
X133804819Y-53654114D01*
X132804819Y-52987448D02*
X132804819Y-52892210D01*
X132804819Y-52892210D02*
X132852438Y-52796972D01*
X132852438Y-52796972D02*
X132900057Y-52749353D01*
X132900057Y-52749353D02*
X132995295Y-52701734D01*
X132995295Y-52701734D02*
X133185771Y-52654115D01*
X133185771Y-52654115D02*
X133423866Y-52654115D01*
X133423866Y-52654115D02*
X133614342Y-52701734D01*
X133614342Y-52701734D02*
X133709580Y-52749353D01*
X133709580Y-52749353D02*
X133757200Y-52796972D01*
X133757200Y-52796972D02*
X133804819Y-52892210D01*
X133804819Y-52892210D02*
X133804819Y-52987448D01*
X133804819Y-52987448D02*
X133757200Y-53082686D01*
X133757200Y-53082686D02*
X133709580Y-53130305D01*
X133709580Y-53130305D02*
X133614342Y-53177924D01*
X133614342Y-53177924D02*
X133423866Y-53225543D01*
X133423866Y-53225543D02*
X133185771Y-53225543D01*
X133185771Y-53225543D02*
X132995295Y-53177924D01*
X132995295Y-53177924D02*
X132900057Y-53130305D01*
X132900057Y-53130305D02*
X132852438Y-53082686D01*
X132852438Y-53082686D02*
X132804819Y-52987448D01*
X132804819Y-52035067D02*
X132804819Y-51939829D01*
X132804819Y-51939829D02*
X132852438Y-51844591D01*
X132852438Y-51844591D02*
X132900057Y-51796972D01*
X132900057Y-51796972D02*
X132995295Y-51749353D01*
X132995295Y-51749353D02*
X133185771Y-51701734D01*
X133185771Y-51701734D02*
X133423866Y-51701734D01*
X133423866Y-51701734D02*
X133614342Y-51749353D01*
X133614342Y-51749353D02*
X133709580Y-51796972D01*
X133709580Y-51796972D02*
X133757200Y-51844591D01*
X133757200Y-51844591D02*
X133804819Y-51939829D01*
X133804819Y-51939829D02*
X133804819Y-52035067D01*
X133804819Y-52035067D02*
X133757200Y-52130305D01*
X133757200Y-52130305D02*
X133709580Y-52177924D01*
X133709580Y-52177924D02*
X133614342Y-52225543D01*
X133614342Y-52225543D02*
X133423866Y-52273162D01*
X133423866Y-52273162D02*
X133185771Y-52273162D01*
X133185771Y-52273162D02*
X132995295Y-52225543D01*
X132995295Y-52225543D02*
X132900057Y-52177924D01*
X132900057Y-52177924D02*
X132852438Y-52130305D01*
X132852438Y-52130305D02*
X132804819Y-52035067D01*
X132804819Y-51082686D02*
X132804819Y-50987448D01*
X132804819Y-50987448D02*
X132852438Y-50892210D01*
X132852438Y-50892210D02*
X132900057Y-50844591D01*
X132900057Y-50844591D02*
X132995295Y-50796972D01*
X132995295Y-50796972D02*
X133185771Y-50749353D01*
X133185771Y-50749353D02*
X133423866Y-50749353D01*
X133423866Y-50749353D02*
X133614342Y-50796972D01*
X133614342Y-50796972D02*
X133709580Y-50844591D01*
X133709580Y-50844591D02*
X133757200Y-50892210D01*
X133757200Y-50892210D02*
X133804819Y-50987448D01*
X133804819Y-50987448D02*
X133804819Y-51082686D01*
X133804819Y-51082686D02*
X133757200Y-51177924D01*
X133757200Y-51177924D02*
X133709580Y-51225543D01*
X133709580Y-51225543D02*
X133614342Y-51273162D01*
X133614342Y-51273162D02*
X133423866Y-51320781D01*
X133423866Y-51320781D02*
X133185771Y-51320781D01*
X133185771Y-51320781D02*
X132995295Y-51273162D01*
X132995295Y-51273162D02*
X132900057Y-51225543D01*
X132900057Y-51225543D02*
X132852438Y-51177924D01*
X132852438Y-51177924D02*
X132804819Y-51082686D01*
X132804819Y-50130305D02*
X132804819Y-50035067D01*
X132804819Y-50035067D02*
X132852438Y-49939829D01*
X132852438Y-49939829D02*
X132900057Y-49892210D01*
X132900057Y-49892210D02*
X132995295Y-49844591D01*
X132995295Y-49844591D02*
X133185771Y-49796972D01*
X133185771Y-49796972D02*
X133423866Y-49796972D01*
X133423866Y-49796972D02*
X133614342Y-49844591D01*
X133614342Y-49844591D02*
X133709580Y-49892210D01*
X133709580Y-49892210D02*
X133757200Y-49939829D01*
X133757200Y-49939829D02*
X133804819Y-50035067D01*
X133804819Y-50035067D02*
X133804819Y-50130305D01*
X133804819Y-50130305D02*
X133757200Y-50225543D01*
X133757200Y-50225543D02*
X133709580Y-50273162D01*
X133709580Y-50273162D02*
X133614342Y-50320781D01*
X133614342Y-50320781D02*
X133423866Y-50368400D01*
X133423866Y-50368400D02*
X133185771Y-50368400D01*
X133185771Y-50368400D02*
X132995295Y-50320781D01*
X132995295Y-50320781D02*
X132900057Y-50273162D01*
X132900057Y-50273162D02*
X132852438Y-50225543D01*
X132852438Y-50225543D02*
X132804819Y-50130305D01*
X133804819Y-48606495D02*
X133138152Y-48606495D01*
X133233390Y-48606495D02*
X133185771Y-48558876D01*
X133185771Y-48558876D02*
X133138152Y-48463638D01*
X133138152Y-48463638D02*
X133138152Y-48320781D01*
X133138152Y-48320781D02*
X133185771Y-48225543D01*
X133185771Y-48225543D02*
X133281009Y-48177924D01*
X133281009Y-48177924D02*
X133804819Y-48177924D01*
X133281009Y-48177924D02*
X133185771Y-48130305D01*
X133185771Y-48130305D02*
X133138152Y-48035067D01*
X133138152Y-48035067D02*
X133138152Y-47892210D01*
X133138152Y-47892210D02*
X133185771Y-47796971D01*
X133185771Y-47796971D02*
X133281009Y-47749352D01*
X133281009Y-47749352D02*
X133804819Y-47749352D01*
X133804819Y-47273162D02*
X133138152Y-47273162D01*
X133233390Y-47273162D02*
X133185771Y-47225543D01*
X133185771Y-47225543D02*
X133138152Y-47130305D01*
X133138152Y-47130305D02*
X133138152Y-46987448D01*
X133138152Y-46987448D02*
X133185771Y-46892210D01*
X133185771Y-46892210D02*
X133281009Y-46844591D01*
X133281009Y-46844591D02*
X133804819Y-46844591D01*
X133281009Y-46844591D02*
X133185771Y-46796972D01*
X133185771Y-46796972D02*
X133138152Y-46701734D01*
X133138152Y-46701734D02*
X133138152Y-46558877D01*
X133138152Y-46558877D02*
X133185771Y-46463638D01*
X133185771Y-46463638D02*
X133281009Y-46416019D01*
X133281009Y-46416019D02*
X133804819Y-46416019D01*
D42*
X122415087Y-83487449D02*
X135086420Y-83487449D01*
X122415087Y-18487449D02*
X135086420Y-18487449D01*
X134500000Y-83487449D02*
X134500000Y-18487449D01*
X134500000Y-83487449D02*
X134500000Y-18487449D01*
X134500000Y-83487449D02*
X133913579Y-82360945D01*
X134500000Y-83487449D02*
X135086421Y-82360945D01*
X134500000Y-18487449D02*
X135086421Y-19613953D01*
X134500000Y-18487449D02*
X133913579Y-19613953D01*
M02*
