%TF.GenerationSoftware,KiCad,Pcbnew,8.0.6*%
%TF.CreationDate,2026-01-06T07:00:52+07:00*%
%TF.ProjectId,Tesla coil winder Control board ,5465736c-6120-4636-9f69-6c2077696e64,rev?*%
%TF.SameCoordinates,Original*%
%TF.FileFunction,Copper,L1,Top*%
%TF.FilePolarity,Positive*%
%FSLAX46Y46*%
G04 Gerber Fmt 4.6, Leading zero omitted, Abs format (unit mm)*
G04 Created by KiCad (PCBNEW 8.0.6) date 2026-01-06 07:00:52*
%MOMM*%
%LPD*%
G01*
G04 APERTURE LIST*
G04 Aperture macros list*
%AMRoundRect*
0 Rectangle with rounded corners*
0 $1 Rounding radius*
0 $2 $3 $4 $5 $6 $7 $8 $9 X,Y pos of 4 corners*
0 Add a 4 corners polygon primitive as box body*
4,1,4,$2,$3,$4,$5,$6,$7,$8,$9,$2,$3,0*
0 Add four circle primitives for the rounded corners*
1,1,$1+$1,$2,$3*
1,1,$1+$1,$4,$5*
1,1,$1+$1,$6,$7*
1,1,$1+$1,$8,$9*
0 Add four rect primitives between the rounded corners*
20,1,$1+$1,$2,$3,$4,$5,0*
20,1,$1+$1,$4,$5,$6,$7,0*
20,1,$1+$1,$6,$7,$8,$9,0*
20,1,$1+$1,$8,$9,$2,$3,0*%
G04 Aperture macros list end*
%TA.AperFunction,ComponentPad*%
%ADD10C,1.600000*%
%TD*%
%TA.AperFunction,ComponentPad*%
%ADD11O,1.600000X1.600000*%
%TD*%
%TA.AperFunction,ComponentPad*%
%ADD12RoundRect,0.250000X0.845000X-0.620000X0.845000X0.620000X-0.845000X0.620000X-0.845000X-0.620000X0*%
%TD*%
%TA.AperFunction,ComponentPad*%
%ADD13O,2.190000X1.740000*%
%TD*%
%TA.AperFunction,ComponentPad*%
%ADD14RoundRect,0.250000X0.620000X0.845000X-0.620000X0.845000X-0.620000X-0.845000X0.620000X-0.845000X0*%
%TD*%
%TA.AperFunction,ComponentPad*%
%ADD15O,1.740000X2.190000*%
%TD*%
%TA.AperFunction,ComponentPad*%
%ADD16R,2.000000X1.905000*%
%TD*%
%TA.AperFunction,ComponentPad*%
%ADD17O,2.000000X1.905000*%
%TD*%
%TA.AperFunction,ComponentPad*%
%ADD18R,2.800000X2.800000*%
%TD*%
%TA.AperFunction,ComponentPad*%
%ADD19C,2.800000*%
%TD*%
%TA.AperFunction,ComponentPad*%
%ADD20RoundRect,0.250000X-0.620000X-0.845000X0.620000X-0.845000X0.620000X0.845000X-0.620000X0.845000X0*%
%TD*%
%TA.AperFunction,ComponentPad*%
%ADD21R,1.800000X1.800000*%
%TD*%
%TA.AperFunction,ComponentPad*%
%ADD22C,1.800000*%
%TD*%
%TA.AperFunction,ComponentPad*%
%ADD23R,1.600000X1.600000*%
%TD*%
%TA.AperFunction,ComponentPad*%
%ADD24RoundRect,0.250000X-0.845000X0.620000X-0.845000X-0.620000X0.845000X-0.620000X0.845000X0.620000X0*%
%TD*%
%TA.AperFunction,ComponentPad*%
%ADD25R,2.000000X2.000000*%
%TD*%
%TA.AperFunction,ComponentPad*%
%ADD26C,2.000000*%
%TD*%
%TA.AperFunction,ComponentPad*%
%ADD27C,2.400000*%
%TD*%
%TA.AperFunction,ComponentPad*%
%ADD28O,2.400000X2.400000*%
%TD*%
%TA.AperFunction,ViaPad*%
%ADD29C,1.600000*%
%TD*%
%TA.AperFunction,Conductor*%
%ADD30C,1.200000*%
%TD*%
%TA.AperFunction,Conductor*%
%ADD31C,0.800000*%
%TD*%
%TA.AperFunction,Profile*%
%ADD32C,0.050000*%
%TD*%
%ADD33C,0.150000*%
G04 APERTURE END LIST*
D10*
%TO.P,C5,1*%
%TO.N,+5V*%
X111500000Y-42810000D03*
%TO.P,C5,2*%
%TO.N,GNDPWR*%
X111500000Y-45310000D03*
%TD*%
%TO.P,R1,1*%
%TO.N,+5V*%
X65223144Y-25000000D03*
D11*
%TO.P,R1,2*%
%TO.N,Net-(D2-A)*%
X57603144Y-25000000D03*
%TD*%
D12*
%TO.P,J5,1,Pin_1*%
%TO.N,Net-(A3-B2)*%
X48603144Y-72576856D03*
D13*
%TO.P,J5,2,Pin_2*%
%TO.N,Net-(A3-B1)*%
X48603144Y-70036856D03*
%TO.P,J5,3,Pin_3*%
%TO.N,Net-(A3-A1)*%
X48603144Y-67496856D03*
%TO.P,J5,4,Pin_4*%
%TO.N,Net-(A3-A2)*%
X48603144Y-64956856D03*
%TD*%
D14*
%TO.P,J7,1,Pin_1*%
%TO.N,/Gantry limit -*%
X110540000Y-57500000D03*
D15*
%TO.P,J7,2,Pin_2*%
%TO.N,GNDPWR*%
X108000000Y-57500000D03*
%TD*%
D16*
%TO.P,U1,1,VI*%
%TO.N,+24V*%
X115055000Y-38730000D03*
D17*
%TO.P,U1,2,GND*%
%TO.N,GNDPWR*%
X115055000Y-41270000D03*
%TO.P,U1,3,VO*%
%TO.N,+5V*%
X115055000Y-43810000D03*
%TD*%
D10*
%TO.P,R4,1*%
%TO.N,+5V*%
X64500000Y-54500000D03*
D11*
%TO.P,R4,2*%
%TO.N,/e stop*%
X72120000Y-54500000D03*
%TD*%
D18*
%TO.P,J3,1,Pin_1*%
%TO.N,GNDPWR*%
X115500000Y-32230000D03*
D19*
%TO.P,J3,2,Pin_2*%
%TO.N,Net-(J3-Pin_2)*%
X115500000Y-27230000D03*
%TD*%
D20*
%TO.P,J8,1,Pin_1*%
%TO.N,/Tension switch*%
X104460000Y-65000000D03*
D15*
%TO.P,J8,2,Pin_2*%
%TO.N,GNDPWR*%
X107000000Y-65000000D03*
%TD*%
D12*
%TO.P,J4,1,Pin_1*%
%TO.N,Net-(A2-B2)*%
X48103144Y-46200000D03*
D13*
%TO.P,J4,2,Pin_2*%
%TO.N,Net-(A2-B1)*%
X48103144Y-43660000D03*
%TO.P,J4,3,Pin_3*%
%TO.N,Net-(A2-A1)*%
X48103144Y-41120000D03*
%TO.P,J4,4,Pin_4*%
%TO.N,Net-(A2-A2)*%
X48103144Y-38580000D03*
%TD*%
D21*
%TO.P,D2,1,K*%
%TO.N,Net-(A2-~{FLT})*%
X49603144Y-33696856D03*
D22*
%TO.P,D2,2,A*%
%TO.N,Net-(D2-A)*%
X47063144Y-33696856D03*
%TD*%
D23*
%TO.P,A1,1,TX1*%
%TO.N,/dir 1*%
X82180000Y-38120000D03*
D11*
%TO.P,A1,2,RX1*%
%TO.N,/dir 2*%
X82180000Y-40660000D03*
%TO.P,A1,3,~{RESET}*%
%TO.N,unconnected-(A1-~{RESET}-Pad3)*%
X82180000Y-43200000D03*
%TO.P,A1,4,GND*%
%TO.N,GNDPWR*%
X82180000Y-45740000D03*
%TO.P,A1,5,D2*%
%TO.N,/e stop*%
X82180000Y-48280000D03*
%TO.P,A1,6,D3*%
%TO.N,Net-(A1-D3)*%
X82180000Y-50820000D03*
%TO.P,A1,7,D4*%
%TO.N,Net-(A1-D4)*%
X82180000Y-53360000D03*
%TO.P,A1,8,D5*%
%TO.N,Net-(A1-D5)*%
X82180000Y-55900000D03*
%TO.P,A1,9,D6*%
%TO.N,Net-(A1-D6)*%
X82180000Y-58440000D03*
%TO.P,A1,10,D7*%
%TO.N,Net-(A1-D7)*%
X82180000Y-60980000D03*
%TO.P,A1,11,D8*%
%TO.N,Net-(A1-D8)*%
X82180000Y-63520000D03*
%TO.P,A1,12,D9*%
%TO.N,/step 2*%
X82180000Y-66060000D03*
%TO.P,A1,13,D10*%
%TO.N,/step 1*%
X82180000Y-68600000D03*
%TO.P,A1,14,MOSI*%
%TO.N,Net-(A1-MOSI)*%
X82180000Y-71140000D03*
%TO.P,A1,15,MISO*%
%TO.N,Net-(A1-MISO)*%
X82180000Y-73680000D03*
%TO.P,A1,16,SCK*%
%TO.N,Net-(A1-SCK)*%
X97420000Y-73680000D03*
%TO.P,A1,17,3V3*%
%TO.N,unconnected-(A1-3V3-Pad17)*%
X97420000Y-71140000D03*
%TO.P,A1,18,AREF*%
%TO.N,unconnected-(A1-AREF-Pad18)*%
X97420000Y-68600000D03*
%TO.P,A1,19,A0*%
%TO.N,/Keypad 9*%
X97420000Y-66060000D03*
%TO.P,A1,20,A1*%
%TO.N,/Tension switch*%
X97420000Y-63520000D03*
%TO.P,A1,21,A2*%
%TO.N,/Gantry limit -*%
X97420000Y-60980000D03*
%TO.P,A1,22,A3*%
%TO.N,/Gantry limit +*%
X97420000Y-58440000D03*
%TO.P,A1,23,SDA/A4*%
%TO.N,/SDA*%
X97420000Y-55900000D03*
%TO.P,A1,24,SCL/A5*%
%TO.N,/SCL*%
X97420000Y-53360000D03*
%TO.P,A1,25,A6*%
%TO.N,unconnected-(A1-A6-Pad25)*%
X97420000Y-50820000D03*
%TO.P,A1,26,A7*%
%TO.N,unconnected-(A1-A7-Pad26)*%
X97420000Y-48280000D03*
%TO.P,A1,27,+5V*%
%TO.N,+5V*%
X97420000Y-45740000D03*
%TO.P,A1,28,~{RESET}*%
%TO.N,unconnected-(A1-~{RESET}-Pad28)*%
X97420000Y-43200000D03*
%TO.P,A1,29,GND*%
%TO.N,GNDPWR*%
X97420000Y-40660000D03*
%TO.P,A1,30,VIN*%
%TO.N,unconnected-(A1-VIN-Pad30)*%
X97420000Y-38120000D03*
%TD*%
D23*
%TO.P,C2,1*%
%TO.N,+24V*%
X59500000Y-48500000D03*
D10*
%TO.P,C2,2*%
%TO.N,GNDPWR*%
X63300000Y-48500000D03*
%TD*%
%TO.P,C4,1*%
%TO.N,+24V*%
X111500000Y-38000000D03*
%TO.P,C4,2*%
%TO.N,GNDPWR*%
X111500000Y-40500000D03*
%TD*%
%TO.P,R3,1*%
%TO.N,GNDPWR*%
X117555000Y-48500000D03*
D11*
%TO.P,R3,2*%
%TO.N,Net-(D3-K)*%
X109935000Y-48500000D03*
%TD*%
D20*
%TO.P,J6,1,Pin_1*%
%TO.N,/Gantry limit +*%
X101460000Y-57500000D03*
D15*
%TO.P,J6,2,Pin_2*%
%TO.N,GNDPWR*%
X104000000Y-57500000D03*
%TD*%
D10*
%TO.P,R2,1*%
%TO.N,+5V*%
X62310000Y-54500000D03*
D11*
%TO.P,R2,2*%
%TO.N,Net-(D1-A)*%
X54690000Y-54500000D03*
%TD*%
D23*
%TO.P,A3,1,GND*%
%TO.N,GNDPWR*%
X55103144Y-57766856D03*
D11*
%TO.P,A3,2,~{FLT}*%
%TO.N,Net-(A3-~{FLT})*%
X55103144Y-60306856D03*
%TO.P,A3,3,A2*%
%TO.N,Net-(A3-A2)*%
X55103144Y-62846856D03*
%TO.P,A3,4,A1*%
%TO.N,Net-(A3-A1)*%
X55103144Y-65386856D03*
%TO.P,A3,5,B1*%
%TO.N,Net-(A3-B1)*%
X55103144Y-67926856D03*
%TO.P,A3,6,B2*%
%TO.N,Net-(A3-B2)*%
X55103144Y-70466856D03*
%TO.P,A3,7,GND*%
%TO.N,GNDPWR*%
X55103144Y-73006856D03*
%TO.P,A3,8,VMOT*%
%TO.N,+24V*%
X55103144Y-75546856D03*
%TO.P,A3,9,~{EN}*%
%TO.N,Net-(A3-~{EN})*%
X67803144Y-75546856D03*
%TO.P,A3,10,M0*%
%TO.N,Net-(A3-M0)*%
X67803144Y-73006856D03*
%TO.P,A3,11,M1*%
%TO.N,Net-(A3-M1)*%
X67803144Y-70466856D03*
%TO.P,A3,12,M2*%
%TO.N,Net-(A3-M2)*%
X67803144Y-67926856D03*
%TO.P,A3,13,~{RST}*%
%TO.N,+5V*%
X67803144Y-65386856D03*
%TO.P,A3,14,~{SLP}*%
X67803144Y-62846856D03*
%TO.P,A3,15,STEP*%
%TO.N,/step 2*%
X67803144Y-60306856D03*
%TO.P,A3,16,DIR*%
%TO.N,/dir 2*%
X67803144Y-57766856D03*
%TD*%
D23*
%TO.P,C1,1*%
%TO.N,+24V*%
X59700000Y-79000000D03*
D10*
%TO.P,C1,2*%
%TO.N,GNDPWR*%
X63500000Y-79000000D03*
%TD*%
D24*
%TO.P,J10,1,Pin_1*%
%TO.N,Net-(A1-D3)*%
X77000000Y-54920000D03*
D13*
%TO.P,J10,2,Pin_2*%
%TO.N,Net-(A1-D4)*%
X77000000Y-57460000D03*
%TO.P,J10,3,Pin_3*%
%TO.N,Net-(A1-D5)*%
X77000000Y-60000000D03*
%TO.P,J10,4,Pin_4*%
%TO.N,Net-(A1-D6)*%
X77000000Y-62540000D03*
%TO.P,J10,5,Pin_5*%
%TO.N,Net-(A1-D7)*%
X77000000Y-65080000D03*
%TO.P,J10,6,Pin_6*%
%TO.N,Net-(A1-D8)*%
X77000000Y-67620000D03*
%TO.P,J10,7,Pin_7*%
%TO.N,Net-(A1-MOSI)*%
X77000000Y-70160000D03*
%TO.P,J10,8,Pin_8*%
%TO.N,Net-(A1-MISO)*%
X77000000Y-72700000D03*
%TO.P,J10,9,Pin_9*%
%TO.N,/Keypad 9*%
X77000000Y-75240000D03*
%TD*%
D24*
%TO.P,J2,1,Pin_1*%
%TO.N,/SCL*%
X116500000Y-55380000D03*
D13*
%TO.P,J2,2,Pin_2*%
%TO.N,/SDA*%
X116500000Y-57920000D03*
%TO.P,J2,3,Pin_3*%
%TO.N,+5V*%
X116500000Y-60460000D03*
%TO.P,J2,4,Pin_4*%
%TO.N,GNDPWR*%
X116500000Y-63000000D03*
%TD*%
D23*
%TO.P,A2,1,GND*%
%TO.N,GNDPWR*%
X55103144Y-27920000D03*
D11*
%TO.P,A2,2,~{FLT}*%
%TO.N,Net-(A2-~{FLT})*%
X55103144Y-30460000D03*
%TO.P,A2,3,A2*%
%TO.N,Net-(A2-A2)*%
X55103144Y-33000000D03*
%TO.P,A2,4,A1*%
%TO.N,Net-(A2-A1)*%
X55103144Y-35540000D03*
%TO.P,A2,5,B1*%
%TO.N,Net-(A2-B1)*%
X55103144Y-38080000D03*
%TO.P,A2,6,B2*%
%TO.N,Net-(A2-B2)*%
X55103144Y-40620000D03*
%TO.P,A2,7,GND*%
%TO.N,GNDPWR*%
X55103144Y-43160000D03*
%TO.P,A2,8,VMOT*%
%TO.N,+24V*%
X55103144Y-45700000D03*
%TO.P,A2,9,~{EN}*%
%TO.N,Net-(A2-~{EN})*%
X67803144Y-45700000D03*
%TO.P,A2,10,M0*%
%TO.N,Net-(A2-M0)*%
X67803144Y-43160000D03*
%TO.P,A2,11,M1*%
%TO.N,Net-(A2-M1)*%
X67803144Y-40620000D03*
%TO.P,A2,12,M2*%
%TO.N,Net-(A2-M2)*%
X67803144Y-38080000D03*
%TO.P,A2,13,~{RST}*%
%TO.N,+5V*%
X67803144Y-35540000D03*
%TO.P,A2,14,~{SLP}*%
X67803144Y-33000000D03*
%TO.P,A2,15,STEP*%
%TO.N,/step 1*%
X67803144Y-30460000D03*
%TO.P,A2,16,DIR*%
%TO.N,/dir 1*%
X67803144Y-27920000D03*
%TD*%
D25*
%TO.P,BZ1,1,+*%
%TO.N,Net-(A1-SCK)*%
X109900000Y-74000000D03*
D26*
%TO.P,BZ1,2,-*%
%TO.N,GNDPWR*%
X117500000Y-74000000D03*
%TD*%
D23*
%TO.P,C3,1*%
%TO.N,+24V*%
X105500000Y-34200000D03*
D10*
%TO.P,C3,2*%
%TO.N,GNDPWR*%
X105500000Y-38000000D03*
%TD*%
D23*
%TO.P,D5,1,K*%
%TO.N,Net-(A3-~{EN})*%
X68303144Y-78536856D03*
D11*
%TO.P,D5,2,A*%
%TO.N,/e stop*%
X75923144Y-78536856D03*
%TD*%
D12*
%TO.P,J9,1,Pin_1*%
%TO.N,/e stop*%
X77020000Y-48040000D03*
D13*
%TO.P,J9,2,Pin_2*%
%TO.N,GNDPWR*%
X77020000Y-45500000D03*
%TD*%
D21*
%TO.P,D1,1,K*%
%TO.N,Net-(A3-~{FLT})*%
X47563144Y-57196856D03*
D22*
%TO.P,D1,2,A*%
%TO.N,Net-(D1-A)*%
X50103144Y-57196856D03*
%TD*%
D21*
%TO.P,D3,1,K*%
%TO.N,Net-(D3-K)*%
X104500000Y-46040000D03*
D22*
%TO.P,D3,2,A*%
%TO.N,+24V*%
X104500000Y-43500000D03*
%TD*%
D27*
%TO.P,F1,1*%
%TO.N,Net-(J3-Pin_2)*%
X99200000Y-29230000D03*
D28*
%TO.P,F1,2*%
%TO.N,+24V*%
X76340000Y-29230000D03*
%TD*%
D23*
%TO.P,D4,1,K*%
%TO.N,Net-(A2-~{EN})*%
X66380000Y-51536856D03*
D11*
%TO.P,D4,2,A*%
%TO.N,/e stop*%
X74000000Y-51536856D03*
%TD*%
D29*
%TO.N,+24V*%
X82000000Y-23000000D03*
X82000000Y-29230000D03*
%TO.N,/dir 1*%
X80000000Y-38000000D03*
X80000000Y-33000000D03*
%TD*%
D30*
%TO.N,+24V*%
X82000000Y-29230000D02*
X82000000Y-23000000D01*
D31*
%TO.N,/dir 1*%
X80000000Y-38000000D02*
X80000000Y-33000000D01*
%TD*%
D32*
X46603145Y-80000000D02*
G75*
G02*
X43774717Y-80000000I-1414214J0D01*
G01*
X43774717Y-80000000D02*
G75*
G02*
X46603145Y-80000000I1414214J0D01*
G01*
X105868717Y-22333726D02*
G75*
G02*
X103040289Y-22333726I-1414214J0D01*
G01*
X103040289Y-22333726D02*
G75*
G02*
X105868717Y-22333726I1414214J0D01*
G01*
X41915087Y-18487449D02*
X121915087Y-18487449D01*
X121915087Y-83487449D01*
X41915087Y-83487449D01*
X41915087Y-18487449D01*
X105368717Y-80000000D02*
G75*
G02*
X102540289Y-80000000I-1414214J0D01*
G01*
X102540289Y-80000000D02*
G75*
G02*
X105368717Y-80000000I1414214J0D01*
G01*
X47103145Y-22333726D02*
G75*
G02*
X44274717Y-22333726I-1414214J0D01*
G01*
X44274717Y-22333726D02*
G75*
G02*
X47103145Y-22333726I1414214J0D01*
G01*
D33*
X77486516Y-90233389D02*
X77391278Y-90185770D01*
X77391278Y-90185770D02*
X77343659Y-90138151D01*
X77343659Y-90138151D02*
X77296040Y-90042913D01*
X77296040Y-90042913D02*
X77296040Y-89995294D01*
X77296040Y-89995294D02*
X77343659Y-89900056D01*
X77343659Y-89900056D02*
X77391278Y-89852437D01*
X77391278Y-89852437D02*
X77486516Y-89804818D01*
X77486516Y-89804818D02*
X77676992Y-89804818D01*
X77676992Y-89804818D02*
X77772230Y-89852437D01*
X77772230Y-89852437D02*
X77819849Y-89900056D01*
X77819849Y-89900056D02*
X77867468Y-89995294D01*
X77867468Y-89995294D02*
X77867468Y-90042913D01*
X77867468Y-90042913D02*
X77819849Y-90138151D01*
X77819849Y-90138151D02*
X77772230Y-90185770D01*
X77772230Y-90185770D02*
X77676992Y-90233389D01*
X77676992Y-90233389D02*
X77486516Y-90233389D01*
X77486516Y-90233389D02*
X77391278Y-90281008D01*
X77391278Y-90281008D02*
X77343659Y-90328627D01*
X77343659Y-90328627D02*
X77296040Y-90423865D01*
X77296040Y-90423865D02*
X77296040Y-90614341D01*
X77296040Y-90614341D02*
X77343659Y-90709579D01*
X77343659Y-90709579D02*
X77391278Y-90757199D01*
X77391278Y-90757199D02*
X77486516Y-90804818D01*
X77486516Y-90804818D02*
X77676992Y-90804818D01*
X77676992Y-90804818D02*
X77772230Y-90757199D01*
X77772230Y-90757199D02*
X77819849Y-90709579D01*
X77819849Y-90709579D02*
X77867468Y-90614341D01*
X77867468Y-90614341D02*
X77867468Y-90423865D01*
X77867468Y-90423865D02*
X77819849Y-90328627D01*
X77819849Y-90328627D02*
X77772230Y-90281008D01*
X77772230Y-90281008D02*
X77676992Y-90233389D01*
X78486516Y-89804818D02*
X78581754Y-89804818D01*
X78581754Y-89804818D02*
X78676992Y-89852437D01*
X78676992Y-89852437D02*
X78724611Y-89900056D01*
X78724611Y-89900056D02*
X78772230Y-89995294D01*
X78772230Y-89995294D02*
X78819849Y-90185770D01*
X78819849Y-90185770D02*
X78819849Y-90423865D01*
X78819849Y-90423865D02*
X78772230Y-90614341D01*
X78772230Y-90614341D02*
X78724611Y-90709579D01*
X78724611Y-90709579D02*
X78676992Y-90757199D01*
X78676992Y-90757199D02*
X78581754Y-90804818D01*
X78581754Y-90804818D02*
X78486516Y-90804818D01*
X78486516Y-90804818D02*
X78391278Y-90757199D01*
X78391278Y-90757199D02*
X78343659Y-90709579D01*
X78343659Y-90709579D02*
X78296040Y-90614341D01*
X78296040Y-90614341D02*
X78248421Y-90423865D01*
X78248421Y-90423865D02*
X78248421Y-90185770D01*
X78248421Y-90185770D02*
X78296040Y-89995294D01*
X78296040Y-89995294D02*
X78343659Y-89900056D01*
X78343659Y-89900056D02*
X78391278Y-89852437D01*
X78391278Y-89852437D02*
X78486516Y-89804818D01*
X79248421Y-90709579D02*
X79296040Y-90757199D01*
X79296040Y-90757199D02*
X79248421Y-90804818D01*
X79248421Y-90804818D02*
X79200802Y-90757199D01*
X79200802Y-90757199D02*
X79248421Y-90709579D01*
X79248421Y-90709579D02*
X79248421Y-90804818D01*
X79915087Y-89804818D02*
X80010325Y-89804818D01*
X80010325Y-89804818D02*
X80105563Y-89852437D01*
X80105563Y-89852437D02*
X80153182Y-89900056D01*
X80153182Y-89900056D02*
X80200801Y-89995294D01*
X80200801Y-89995294D02*
X80248420Y-90185770D01*
X80248420Y-90185770D02*
X80248420Y-90423865D01*
X80248420Y-90423865D02*
X80200801Y-90614341D01*
X80200801Y-90614341D02*
X80153182Y-90709579D01*
X80153182Y-90709579D02*
X80105563Y-90757199D01*
X80105563Y-90757199D02*
X80010325Y-90804818D01*
X80010325Y-90804818D02*
X79915087Y-90804818D01*
X79915087Y-90804818D02*
X79819849Y-90757199D01*
X79819849Y-90757199D02*
X79772230Y-90709579D01*
X79772230Y-90709579D02*
X79724611Y-90614341D01*
X79724611Y-90614341D02*
X79676992Y-90423865D01*
X79676992Y-90423865D02*
X79676992Y-90185770D01*
X79676992Y-90185770D02*
X79724611Y-89995294D01*
X79724611Y-89995294D02*
X79772230Y-89900056D01*
X79772230Y-89900056D02*
X79819849Y-89852437D01*
X79819849Y-89852437D02*
X79915087Y-89804818D01*
X80867468Y-89804818D02*
X80962706Y-89804818D01*
X80962706Y-89804818D02*
X81057944Y-89852437D01*
X81057944Y-89852437D02*
X81105563Y-89900056D01*
X81105563Y-89900056D02*
X81153182Y-89995294D01*
X81153182Y-89995294D02*
X81200801Y-90185770D01*
X81200801Y-90185770D02*
X81200801Y-90423865D01*
X81200801Y-90423865D02*
X81153182Y-90614341D01*
X81153182Y-90614341D02*
X81105563Y-90709579D01*
X81105563Y-90709579D02*
X81057944Y-90757199D01*
X81057944Y-90757199D02*
X80962706Y-90804818D01*
X80962706Y-90804818D02*
X80867468Y-90804818D01*
X80867468Y-90804818D02*
X80772230Y-90757199D01*
X80772230Y-90757199D02*
X80724611Y-90709579D01*
X80724611Y-90709579D02*
X80676992Y-90614341D01*
X80676992Y-90614341D02*
X80629373Y-90423865D01*
X80629373Y-90423865D02*
X80629373Y-90185770D01*
X80629373Y-90185770D02*
X80676992Y-89995294D01*
X80676992Y-89995294D02*
X80724611Y-89900056D01*
X80724611Y-89900056D02*
X80772230Y-89852437D01*
X80772230Y-89852437D02*
X80867468Y-89804818D01*
X81819849Y-89804818D02*
X81915087Y-89804818D01*
X81915087Y-89804818D02*
X82010325Y-89852437D01*
X82010325Y-89852437D02*
X82057944Y-89900056D01*
X82057944Y-89900056D02*
X82105563Y-89995294D01*
X82105563Y-89995294D02*
X82153182Y-90185770D01*
X82153182Y-90185770D02*
X82153182Y-90423865D01*
X82153182Y-90423865D02*
X82105563Y-90614341D01*
X82105563Y-90614341D02*
X82057944Y-90709579D01*
X82057944Y-90709579D02*
X82010325Y-90757199D01*
X82010325Y-90757199D02*
X81915087Y-90804818D01*
X81915087Y-90804818D02*
X81819849Y-90804818D01*
X81819849Y-90804818D02*
X81724611Y-90757199D01*
X81724611Y-90757199D02*
X81676992Y-90709579D01*
X81676992Y-90709579D02*
X81629373Y-90614341D01*
X81629373Y-90614341D02*
X81581754Y-90423865D01*
X81581754Y-90423865D02*
X81581754Y-90185770D01*
X81581754Y-90185770D02*
X81629373Y-89995294D01*
X81629373Y-89995294D02*
X81676992Y-89900056D01*
X81676992Y-89900056D02*
X81724611Y-89852437D01*
X81724611Y-89852437D02*
X81819849Y-89804818D01*
X82772230Y-89804818D02*
X82867468Y-89804818D01*
X82867468Y-89804818D02*
X82962706Y-89852437D01*
X82962706Y-89852437D02*
X83010325Y-89900056D01*
X83010325Y-89900056D02*
X83057944Y-89995294D01*
X83057944Y-89995294D02*
X83105563Y-90185770D01*
X83105563Y-90185770D02*
X83105563Y-90423865D01*
X83105563Y-90423865D02*
X83057944Y-90614341D01*
X83057944Y-90614341D02*
X83010325Y-90709579D01*
X83010325Y-90709579D02*
X82962706Y-90757199D01*
X82962706Y-90757199D02*
X82867468Y-90804818D01*
X82867468Y-90804818D02*
X82772230Y-90804818D01*
X82772230Y-90804818D02*
X82676992Y-90757199D01*
X82676992Y-90757199D02*
X82629373Y-90709579D01*
X82629373Y-90709579D02*
X82581754Y-90614341D01*
X82581754Y-90614341D02*
X82534135Y-90423865D01*
X82534135Y-90423865D02*
X82534135Y-90185770D01*
X82534135Y-90185770D02*
X82581754Y-89995294D01*
X82581754Y-89995294D02*
X82629373Y-89900056D01*
X82629373Y-89900056D02*
X82676992Y-89852437D01*
X82676992Y-89852437D02*
X82772230Y-89804818D01*
X84296040Y-90804818D02*
X84296040Y-90138151D01*
X84296040Y-90233389D02*
X84343659Y-90185770D01*
X84343659Y-90185770D02*
X84438897Y-90138151D01*
X84438897Y-90138151D02*
X84581754Y-90138151D01*
X84581754Y-90138151D02*
X84676992Y-90185770D01*
X84676992Y-90185770D02*
X84724611Y-90281008D01*
X84724611Y-90281008D02*
X84724611Y-90804818D01*
X84724611Y-90281008D02*
X84772230Y-90185770D01*
X84772230Y-90185770D02*
X84867468Y-90138151D01*
X84867468Y-90138151D02*
X85010325Y-90138151D01*
X85010325Y-90138151D02*
X85105564Y-90185770D01*
X85105564Y-90185770D02*
X85153183Y-90281008D01*
X85153183Y-90281008D02*
X85153183Y-90804818D01*
X85629373Y-90804818D02*
X85629373Y-90138151D01*
X85629373Y-90233389D02*
X85676992Y-90185770D01*
X85676992Y-90185770D02*
X85772230Y-90138151D01*
X85772230Y-90138151D02*
X85915087Y-90138151D01*
X85915087Y-90138151D02*
X86010325Y-90185770D01*
X86010325Y-90185770D02*
X86057944Y-90281008D01*
X86057944Y-90281008D02*
X86057944Y-90804818D01*
X86057944Y-90281008D02*
X86105563Y-90185770D01*
X86105563Y-90185770D02*
X86200801Y-90138151D01*
X86200801Y-90138151D02*
X86343658Y-90138151D01*
X86343658Y-90138151D02*
X86438897Y-90185770D01*
X86438897Y-90185770D02*
X86486516Y-90281008D01*
X86486516Y-90281008D02*
X86486516Y-90804818D01*
D32*
X41915087Y-83987449D02*
X41915087Y-92086419D01*
X121915087Y-83987449D02*
X121915087Y-92086419D01*
X41915087Y-91499999D02*
X121915087Y-91499999D01*
X41915087Y-91499999D02*
X121915087Y-91499999D01*
X41915087Y-91499999D02*
X43041591Y-90913578D01*
X41915087Y-91499999D02*
X43041591Y-92086420D01*
X121915087Y-91499999D02*
X120788583Y-92086420D01*
X121915087Y-91499999D02*
X120788583Y-90913578D01*
D33*
X132804819Y-55130305D02*
X132804819Y-55320781D01*
X132804819Y-55320781D02*
X132852438Y-55416019D01*
X132852438Y-55416019D02*
X132900057Y-55463638D01*
X132900057Y-55463638D02*
X133042914Y-55558876D01*
X133042914Y-55558876D02*
X133233390Y-55606495D01*
X133233390Y-55606495D02*
X133614342Y-55606495D01*
X133614342Y-55606495D02*
X133709580Y-55558876D01*
X133709580Y-55558876D02*
X133757200Y-55511257D01*
X133757200Y-55511257D02*
X133804819Y-55416019D01*
X133804819Y-55416019D02*
X133804819Y-55225543D01*
X133804819Y-55225543D02*
X133757200Y-55130305D01*
X133757200Y-55130305D02*
X133709580Y-55082686D01*
X133709580Y-55082686D02*
X133614342Y-55035067D01*
X133614342Y-55035067D02*
X133376247Y-55035067D01*
X133376247Y-55035067D02*
X133281009Y-55082686D01*
X133281009Y-55082686D02*
X133233390Y-55130305D01*
X133233390Y-55130305D02*
X133185771Y-55225543D01*
X133185771Y-55225543D02*
X133185771Y-55416019D01*
X133185771Y-55416019D02*
X133233390Y-55511257D01*
X133233390Y-55511257D02*
X133281009Y-55558876D01*
X133281009Y-55558876D02*
X133376247Y-55606495D01*
X132804819Y-54130305D02*
X132804819Y-54606495D01*
X132804819Y-54606495D02*
X133281009Y-54654114D01*
X133281009Y-54654114D02*
X133233390Y-54606495D01*
X133233390Y-54606495D02*
X133185771Y-54511257D01*
X133185771Y-54511257D02*
X133185771Y-54273162D01*
X133185771Y-54273162D02*
X133233390Y-54177924D01*
X133233390Y-54177924D02*
X133281009Y-54130305D01*
X133281009Y-54130305D02*
X133376247Y-54082686D01*
X133376247Y-54082686D02*
X133614342Y-54082686D01*
X133614342Y-54082686D02*
X133709580Y-54130305D01*
X133709580Y-54130305D02*
X133757200Y-54177924D01*
X133757200Y-54177924D02*
X133804819Y-54273162D01*
X133804819Y-54273162D02*
X133804819Y-54511257D01*
X133804819Y-54511257D02*
X133757200Y-54606495D01*
X133757200Y-54606495D02*
X133709580Y-54654114D01*
X133709580Y-53654114D02*
X133757200Y-53606495D01*
X133757200Y-53606495D02*
X133804819Y-53654114D01*
X133804819Y-53654114D02*
X133757200Y-53701733D01*
X133757200Y-53701733D02*
X133709580Y-53654114D01*
X133709580Y-53654114D02*
X133804819Y-53654114D01*
X132804819Y-52987448D02*
X132804819Y-52892210D01*
X132804819Y-52892210D02*
X132852438Y-52796972D01*
X132852438Y-52796972D02*
X132900057Y-52749353D01*
X132900057Y-52749353D02*
X132995295Y-52701734D01*
X132995295Y-52701734D02*
X133185771Y-52654115D01*
X133185771Y-52654115D02*
X133423866Y-52654115D01*
X133423866Y-52654115D02*
X133614342Y-52701734D01*
X133614342Y-52701734D02*
X133709580Y-52749353D01*
X133709580Y-52749353D02*
X133757200Y-52796972D01*
X133757200Y-52796972D02*
X133804819Y-52892210D01*
X133804819Y-52892210D02*
X133804819Y-52987448D01*
X133804819Y-52987448D02*
X133757200Y-53082686D01*
X133757200Y-53082686D02*
X133709580Y-53130305D01*
X133709580Y-53130305D02*
X133614342Y-53177924D01*
X133614342Y-53177924D02*
X133423866Y-53225543D01*
X133423866Y-53225543D02*
X133185771Y-53225543D01*
X133185771Y-53225543D02*
X132995295Y-53177924D01*
X132995295Y-53177924D02*
X132900057Y-53130305D01*
X132900057Y-53130305D02*
X132852438Y-53082686D01*
X132852438Y-53082686D02*
X132804819Y-52987448D01*
X132804819Y-52035067D02*
X132804819Y-51939829D01*
X132804819Y-51939829D02*
X132852438Y-51844591D01*
X132852438Y-51844591D02*
X132900057Y-51796972D01*
X132900057Y-51796972D02*
X132995295Y-51749353D01*
X132995295Y-51749353D02*
X133185771Y-51701734D01*
X133185771Y-51701734D02*
X133423866Y-51701734D01*
X133423866Y-51701734D02*
X133614342Y-51749353D01*
X133614342Y-51749353D02*
X133709580Y-51796972D01*
X133709580Y-51796972D02*
X133757200Y-51844591D01*
X133757200Y-51844591D02*
X133804819Y-51939829D01*
X133804819Y-51939829D02*
X133804819Y-52035067D01*
X133804819Y-52035067D02*
X133757200Y-52130305D01*
X133757200Y-52130305D02*
X133709580Y-52177924D01*
X133709580Y-52177924D02*
X133614342Y-52225543D01*
X133614342Y-52225543D02*
X133423866Y-52273162D01*
X133423866Y-52273162D02*
X133185771Y-52273162D01*
X133185771Y-52273162D02*
X132995295Y-52225543D01*
X132995295Y-52225543D02*
X132900057Y-52177924D01*
X132900057Y-52177924D02*
X132852438Y-52130305D01*
X132852438Y-52130305D02*
X132804819Y-52035067D01*
X132804819Y-51082686D02*
X132804819Y-50987448D01*
X132804819Y-50987448D02*
X132852438Y-50892210D01*
X132852438Y-50892210D02*
X132900057Y-50844591D01*
X132900057Y-50844591D02*
X132995295Y-50796972D01*
X132995295Y-50796972D02*
X133185771Y-50749353D01*
X133185771Y-50749353D02*
X133423866Y-50749353D01*
X133423866Y-50749353D02*
X133614342Y-50796972D01*
X133614342Y-50796972D02*
X133709580Y-50844591D01*
X133709580Y-50844591D02*
X133757200Y-50892210D01*
X133757200Y-50892210D02*
X133804819Y-50987448D01*
X133804819Y-50987448D02*
X133804819Y-51082686D01*
X133804819Y-51082686D02*
X133757200Y-51177924D01*
X133757200Y-51177924D02*
X133709580Y-51225543D01*
X133709580Y-51225543D02*
X133614342Y-51273162D01*
X133614342Y-51273162D02*
X133423866Y-51320781D01*
X133423866Y-51320781D02*
X133185771Y-51320781D01*
X133185771Y-51320781D02*
X132995295Y-51273162D01*
X132995295Y-51273162D02*
X132900057Y-51225543D01*
X132900057Y-51225543D02*
X132852438Y-51177924D01*
X132852438Y-51177924D02*
X132804819Y-51082686D01*
X132804819Y-50130305D02*
X132804819Y-50035067D01*
X132804819Y-50035067D02*
X132852438Y-49939829D01*
X132852438Y-49939829D02*
X132900057Y-49892210D01*
X132900057Y-49892210D02*
X132995295Y-49844591D01*
X132995295Y-49844591D02*
X133185771Y-49796972D01*
X133185771Y-49796972D02*
X133423866Y-49796972D01*
X133423866Y-49796972D02*
X133614342Y-49844591D01*
X133614342Y-49844591D02*
X133709580Y-49892210D01*
X133709580Y-49892210D02*
X133757200Y-49939829D01*
X133757200Y-49939829D02*
X133804819Y-50035067D01*
X133804819Y-50035067D02*
X133804819Y-50130305D01*
X133804819Y-50130305D02*
X133757200Y-50225543D01*
X133757200Y-50225543D02*
X133709580Y-50273162D01*
X133709580Y-50273162D02*
X133614342Y-50320781D01*
X133614342Y-50320781D02*
X133423866Y-50368400D01*
X133423866Y-50368400D02*
X133185771Y-50368400D01*
X133185771Y-50368400D02*
X132995295Y-50320781D01*
X132995295Y-50320781D02*
X132900057Y-50273162D01*
X132900057Y-50273162D02*
X132852438Y-50225543D01*
X132852438Y-50225543D02*
X132804819Y-50130305D01*
X133804819Y-48606495D02*
X133138152Y-48606495D01*
X133233390Y-48606495D02*
X133185771Y-48558876D01*
X133185771Y-48558876D02*
X133138152Y-48463638D01*
X133138152Y-48463638D02*
X133138152Y-48320781D01*
X133138152Y-48320781D02*
X133185771Y-48225543D01*
X133185771Y-48225543D02*
X133281009Y-48177924D01*
X133281009Y-48177924D02*
X133804819Y-48177924D01*
X133281009Y-48177924D02*
X133185771Y-48130305D01*
X133185771Y-48130305D02*
X133138152Y-48035067D01*
X133138152Y-48035067D02*
X133138152Y-47892210D01*
X133138152Y-47892210D02*
X133185771Y-47796971D01*
X133185771Y-47796971D02*
X133281009Y-47749352D01*
X133281009Y-47749352D02*
X133804819Y-47749352D01*
X133804819Y-47273162D02*
X133138152Y-47273162D01*
X133233390Y-47273162D02*
X133185771Y-47225543D01*
X133185771Y-47225543D02*
X133138152Y-47130305D01*
X133138152Y-47130305D02*
X133138152Y-46987448D01*
X133138152Y-46987448D02*
X133185771Y-46892210D01*
X133185771Y-46892210D02*
X133281009Y-46844591D01*
X133281009Y-46844591D02*
X133804819Y-46844591D01*
X133281009Y-46844591D02*
X133185771Y-46796972D01*
X133185771Y-46796972D02*
X133138152Y-46701734D01*
X133138152Y-46701734D02*
X133138152Y-46558877D01*
X133138152Y-46558877D02*
X133185771Y-46463638D01*
X133185771Y-46463638D02*
X133281009Y-46416019D01*
X133281009Y-46416019D02*
X133804819Y-46416019D01*
D32*
X122415087Y-83487449D02*
X135086420Y-83487449D01*
X122415087Y-18487449D02*
X135086420Y-18487449D01*
X134500000Y-83487449D02*
X134500000Y-18487449D01*
X134500000Y-83487449D02*
X134500000Y-18487449D01*
X134500000Y-83487449D02*
X133913579Y-82360945D01*
X134500000Y-83487449D02*
X135086421Y-82360945D01*
X134500000Y-18487449D02*
X135086421Y-19613953D01*
X134500000Y-18487449D02*
X133913579Y-19613953D01*
M02*
